<svg width="264" height="179" viewBox="0 0 264 179" fill="none" xmlns="http://www.w3.org/2000/svg">
<rect opacity="0.2" width="263.855" height="178.916" rx="9.03614" fill="#3C8A6D"/>
<g clip-path="url(#clip0_9552_5818)">
<path d="M195.921 89.5173C198.187 101.258 202.78 125.053 191.789 140.972C171.84 169.862 103.997 167.826 75.3403 131.402C72.8628 128.252 60.4346 111.826 61.7906 89.3324C64.1427 50.3171 106.598 15.7358 140.624 22.5278C160.537 26.5029 173.772 43.8925 179.221 51.0517C181.467 54.0021 191.751 67.9114 195.921 89.5173Z" fill="#F4F7FA"/>
<path opacity="0.74" d="M109.254 136.013C115.76 131.742 124.623 124.508 130.063 113.043C137.197 98.0072 132.175 88.9037 137.565 62.28C140.973 45.4461 143.521 33.7324 153.149 28.9089C160.694 25.129 171.684 26.0331 177.449 31.7626C182.243 36.5265 183.987 45.1843 183.941 51.1391C183.904 55.9922 182.676 59.3064 184.961 62.2651C187.296 65.2887 190.546 64.3745 192.816 66.7083C197.419 71.441 192.165 83.5411 191.315 85.4968C181.869 107.251 158.271 118.917 147.916 123.882C139.354 127.987 126.313 133.172 109.254 136.013Z" fill="url(#paint0_linear_9552_5818)"/>
<mask id="mask0_9552_5818" style="mask-type:luminance" maskUnits="userSpaceOnUse" x="109" y="26" width="86" height="111">
<path d="M109.254 136.013C115.76 131.742 124.623 124.508 130.063 113.043C137.197 98.0072 132.175 88.9037 137.565 62.28C140.973 45.4461 143.521 33.7324 153.149 28.9089C160.694 25.129 171.684 26.0331 177.449 31.7626C182.243 36.5265 183.987 45.1843 183.941 51.1391C183.904 55.9922 182.676 59.3064 184.961 62.2651C187.296 65.2887 190.546 64.3745 192.816 66.7083C197.419 71.441 192.165 83.5411 191.315 85.4968C181.869 107.251 158.271 118.917 147.916 123.882C139.354 127.987 126.313 133.172 109.254 136.013Z" fill="white"/>
</mask>
<g mask="url(#mask0_9552_5818)">
<g opacity="0.5">
<path d="M102.119 139.029L102.055 138.696C112.413 136.7 121.539 133.757 129.179 129.949C140.452 124.33 148.143 116.969 152.041 108.07C155.094 101.102 155.777 93.4562 156.722 82.8744C157.477 74.4279 157.25 68.3742 157.05 63.0332C156.789 56.0619 156.582 50.5555 158.713 42.9944C160.877 35.32 164.808 28.0015 170.399 21.2422L170.66 21.4577C165.099 28.1804 161.189 35.4572 159.039 43.0862C156.922 50.596 157.128 56.0789 157.388 63.0205C157.588 68.3715 157.816 74.4366 157.059 82.9044C156.146 93.1189 155.426 101.187 152.351 108.206C148.421 117.18 140.675 124.597 129.33 130.251C121.662 134.073 112.507 137.026 102.119 139.029Z" fill="white"/>
<path d="M157.369 76.8494L157.209 76.7441C157.158 76.7104 152.059 73.2982 147.526 66.6482C144.864 62.7426 142.912 58.4991 141.726 54.0358C140.243 48.4573 139.959 42.5186 140.88 36.3848L141.214 36.435C140.3 42.5195 140.582 48.4091 142.051 53.9401C143.226 58.3651 145.159 62.5727 147.798 66.4459C151.847 72.3905 156.348 75.7254 157.238 76.3531C164.407 62.0583 174.146 54.0167 181.067 49.7832C188.601 45.1747 194.522 43.9578 194.581 43.9461L194.647 44.2777C194.589 44.2894 188.715 45.4986 181.23 50.0802C174.323 54.3077 164.591 62.3539 157.454 76.6784L157.369 76.8494Z" fill="white"/>
<path d="M154.757 99.6265L154.706 99.5146C154.665 99.4254 150.579 90.4899 144.73 82.3334C138.901 74.2069 122.868 68.9424 122.707 68.8902L122.811 68.5685C122.974 68.621 139.112 73.9205 145.004 82.1362C150.518 89.8235 154.469 98.1992 154.962 99.2624C164.435 98.1092 175.845 87.3977 183.763 78.5936C192.393 68.9984 198.849 59.5382 198.913 59.4438L199.193 59.6339C199.129 59.7286 192.66 69.2077 184.015 78.8198C178.935 84.4679 174.108 89.0573 169.667 92.4604C164.102 96.7252 159.126 99.1317 154.879 99.6127L154.757 99.6265Z" fill="white"/>
<path d="M135.295 128.74C133.77 128.74 132.91 128.697 132.884 128.695L132.547 128.677L132.763 128.418C135.931 124.619 137.594 120.36 137.706 115.759C137.796 112.073 136.897 108.158 135.035 104.122C131.856 97.2342 126.905 92.3238 126.855 92.275L127.093 92.0337C127.143 92.0829 132.132 97.0303 135.338 103.972C137.224 108.056 138.135 112.023 138.044 115.763C137.934 120.337 136.317 124.577 133.239 128.371C134.917 128.429 142.673 128.578 152.794 126.915C163.316 125.186 178.62 121.09 191.774 111.392L217.295 92.5763L217.496 92.8485L191.974 111.664C178.764 121.404 163.401 125.516 152.84 127.25C145.015 128.535 138.597 128.74 135.295 128.74Z" fill="white"/>
</g>
</g>
<path d="M133.551 148.483C143.525 150.528 156.488 151.514 169.635 147.638C172.991 146.649 193.719 140.54 192.964 130.126C192.698 126.458 189.991 125.353 189.561 120.456C189.051 114.652 192.524 112.488 195.69 106.005C197.579 102.137 203.108 90.8155 197.781 82.894C194.598 78.1604 187.682 74.8548 181.979 75.2313C173.613 75.7835 169.493 84.1489 162.738 98.4405C156.75 111.11 157.261 114.61 152.809 123.647C149.505 130.354 143.833 139.367 133.551 148.483Z" fill="url(#paint1_linear_9552_5818)"/>
<mask id="mask1_9552_5818" style="mask-type:luminance" maskUnits="userSpaceOnUse" x="133" y="75" width="68" height="76">
<path d="M133.551 148.483C143.525 150.528 156.488 151.514 169.635 147.638C172.991 146.649 193.719 140.54 192.964 130.126C192.698 126.458 189.991 125.353 189.561 120.456C189.051 114.652 192.524 112.488 195.69 106.005C197.579 102.137 203.108 90.8155 197.781 82.894C194.598 78.1604 187.682 74.8548 181.979 75.2313C173.613 75.7835 169.493 84.1489 162.738 98.4405C156.75 111.11 157.261 114.61 152.809 123.647C149.505 130.354 143.833 139.367 133.551 148.483Z" fill="white"/>
</mask>
<g mask="url(#mask1_9552_5818)">
<g opacity="0.5">
<path d="M118.021 150.679C108.765 150.679 99.442 148.246 90.25 143.427L90.407 143.127C100.839 148.597 111.438 150.976 121.909 150.196C135.86 149.157 148.866 142.314 160.564 129.855C172.749 116.879 180.464 101.064 184.789 90.0815C187.788 82.4686 188.784 73.5827 187.751 63.6703L188.087 63.6353C189.127 73.602 188.123 82.5416 185.104 90.2055C180.767 101.215 173.032 117.072 160.811 130.087C149.052 142.609 135.972 149.488 121.934 150.533C120.632 150.63 119.327 150.679 118.021 150.679Z" fill="white"/>
<path d="M174.516 111.521L174.442 111.37C174.42 111.325 172.227 106.807 170.888 100.303C169.652 94.2965 168.91 85.3155 172.398 76.6395L172.712 76.7656C169.257 85.3602 169.992 94.2669 171.217 100.225C172.41 106.024 174.284 110.231 174.674 111.068C198.285 99.5478 200.804 81.5295 201.014 76.2722C201.02 76.1221 201.023 76.0598 201.028 76.0234L201.362 76.0769C201.359 76.0977 201.356 76.189 201.352 76.2857C201.14 81.6017 198.589 99.8481 174.668 111.447L174.516 111.521Z" fill="white"/>
<path d="M176.487 133.005C171.588 133.005 166.324 131.965 160.833 129.912L160.749 129.88L160.728 129.793C160.691 129.644 157.112 114.594 161.243 95.8999L165.413 77.0278L165.743 77.1008L161.573 95.9729C157.622 113.855 160.75 128.374 161.036 129.627C168.017 132.224 178.321 134.465 187.927 130.49C193.685 128.107 196.488 124.573 196.516 124.538L196.782 124.746C196.754 124.782 193.895 128.386 188.056 130.802C184.631 132.22 180.862 132.96 176.855 133.003C176.732 133.005 176.609 133.005 176.487 133.005Z" fill="white"/>
</g>
</g>
<path d="M147.057 29.6172L79.9876 24.0442C78.4297 23.983 77.1641 25.2085 77.1641 26.7817V153.082C77.1641 154.655 78.4297 155.85 79.9876 155.75L147.751 151.434C149.145 151.345 150.272 150.071 150.272 148.587V29.4919C150.272 28.0085 148.451 29.672 147.057 29.6172Z" fill="url(#paint2_linear_9552_5818)"/>
<path d="M131.617 26.4339C131.617 25.5562 132.316 24.8492 133.168 24.8654L133.75 24.8359L136.536 25.9142V26.8997L131.617 26.4339Z" fill="url(#paint3_linear_9552_5818)"/>
<path d="M149.559 26.7069L81.7962 24.0442C80.2383 23.983 78.9727 25.2085 78.9727 26.7817V153.082C78.9727 154.655 80.2383 155.85 81.7962 155.75L149.559 151.434C150.953 151.345 152.081 150.071 152.081 148.587V29.4919C152.081 28.0085 150.953 26.7616 149.559 26.7069Z" fill="#D8DEE8"/>
<g opacity="0.3">
<path d="M121.844 119.526C120.693 105.136 129.326 99.1845 126.035 86.1532C121.965 70.0359 106.287 69.3268 100.939 53.4885C98.8882 47.4165 98.0779 38.2415 103.946 24.9146L81.7962 24.0442C80.2383 23.983 78.9727 25.2085 78.9727 26.7817V153.082C78.9727 154.655 80.2383 155.85 81.7962 155.75L142.253 151.899C126.927 139.816 122.552 128.37 121.844 119.526Z" fill="#D8DEE8"/>
</g>
<path d="M149.558 28.2925L81.7951 25.7186C81.1567 25.6944 80.6367 26.1989 80.6367 26.8433V152.979C80.6367 153.624 81.1567 154.116 81.7951 154.076L149.558 149.848C150.13 149.812 150.595 149.288 150.595 148.678V29.4367C150.595 28.8275 150.13 28.3143 149.558 28.2925Z" fill="url(#paint4_linear_9552_5818)"/>
<path d="M116.599 84.0198C103.912 84.119 93.3984 73.4075 93.3984 60.1404C93.3984 46.8732 103.912 36.3966 116.599 36.7792C129.033 37.1542 138.966 47.8592 138.966 60.6493C138.966 73.4394 129.033 83.9225 116.599 84.0198Z" fill="#D8DEE8"/>
<path d="M137.451 60.6323C137.451 72.5742 128.203 82.3152 116.601 82.3908C104.778 82.4678 95.0273 72.5146 95.0273 60.1585C95.0273 47.8024 104.778 38.0671 116.601 38.4081C128.203 38.7428 137.451 48.6904 137.451 60.6323Z" fill="white"/>
<path opacity="0.74" d="M141.989 92.4553L90.1306 93.2283C88.6812 93.2499 87.5039 94.4616 87.5039 95.9348C87.5039 97.4079 88.6812 98.5796 90.1306 98.552L141.989 97.5617C143.319 97.5363 144.396 96.3748 144.396 94.9676C144.396 93.5603 143.319 92.4355 141.989 92.4553Z" fill="url(#paint5_linear_9552_5818)"/>
<path d="M141.987 102.508L99.506 103.492C98.078 103.525 96.918 104.737 96.918 106.2C96.918 107.662 98.078 108.816 99.506 108.776L141.987 107.615C143.318 107.578 144.394 106.408 144.394 105.001C144.394 103.594 143.318 102.478 141.987 102.508Z" fill="#D8DEE8"/>
<path d="M90.1547 109.032L90.1067 109.033C88.6705 109.072 87.5039 107.962 87.5039 106.554V106.32C87.5039 104.911 88.6705 103.743 90.1067 103.709L90.1547 103.708C91.5875 103.675 92.7466 104.785 92.7466 106.188V106.421C92.7466 107.824 91.5875 108.993 90.1547 109.032Z" fill="#B19AF3"/>
<path d="M90.1322 109.532C88.4135 109.579 87.0117 108.197 87.0117 106.45C87.0117 104.702 88.4135 103.249 90.1322 103.21C91.8463 103.171 93.2374 104.554 93.2374 106.292C93.2374 108.031 91.8463 109.484 90.1322 109.532ZM90.1322 104.208C88.9567 104.236 87.9988 105.23 87.9988 106.425C87.9988 107.619 88.9567 108.565 90.1322 108.533C91.3055 108.502 92.2585 107.508 92.2585 106.317C92.2585 105.127 91.3056 104.18 90.1322 104.208Z" fill="#D8DEE8"/>
<path d="M141.987 111.604L99.506 112.905C98.078 112.949 96.918 114.169 96.918 115.632C96.918 117.094 98.078 118.239 99.506 118.189L141.987 116.71C143.318 116.664 144.394 115.486 144.394 114.079C144.394 112.671 143.318 111.563 141.987 111.604Z" fill="#D8DEE8"/>
<path d="M90.1547 118.515L90.1067 118.516C88.6705 118.566 87.5039 117.465 87.5039 116.057V115.823C87.5039 114.414 88.6705 113.237 90.1067 113.193L90.1547 113.191C91.5875 113.147 92.7466 114.249 92.7466 115.652V115.885C92.7466 117.287 91.5875 118.465 90.1547 118.515Z" fill="#B19AF3"/>
<path d="M90.1322 119.015C88.4135 119.075 87.0117 117.703 87.0117 115.956C87.0117 114.209 88.4135 112.745 90.1322 112.693C91.8463 112.641 93.2374 114.013 93.2374 115.752C93.2374 117.491 91.8463 118.954 90.1322 119.015ZM90.1322 113.691C88.9567 113.727 87.9988 114.729 87.9988 115.924C87.9988 117.118 88.9567 118.057 90.1322 118.016C91.3055 117.976 92.2585 116.975 92.2585 115.784C92.2585 114.594 91.3056 113.655 90.1322 113.691Z" fill="#D8DEE8"/>
<path d="M141.987 120.7L99.506 122.318C98.078 122.372 96.918 123.602 96.918 125.064C96.918 126.526 98.078 127.662 99.506 127.602L141.987 125.806C143.318 125.75 144.394 124.564 144.394 123.156C144.394 121.749 143.318 120.649 141.987 120.7Z" fill="#D8DEE8"/>
<path d="M90.1322 128.497C88.4135 128.571 87.0117 127.209 87.0117 125.462C87.0117 123.715 88.4135 122.24 90.1322 122.176C91.8463 122.111 93.2374 123.473 93.2374 125.212C93.2374 126.95 91.8463 128.424 90.1322 128.497ZM90.1322 123.174C88.9567 123.219 87.9988 124.228 87.9988 125.422C87.9988 126.617 88.9567 127.548 90.1322 127.499C91.3055 127.45 92.2585 126.442 92.2585 125.251C92.2585 124.061 91.3056 123.129 90.1322 123.174Z" fill="#D8DEE8"/>
<path d="M141.987 129.795L99.506 131.73C98.078 131.795 96.918 133.034 96.918 134.496C96.918 135.958 98.078 137.086 99.506 137.015L141.987 134.902C143.318 134.836 144.394 133.641 144.394 132.234C144.394 130.827 143.318 129.735 141.987 129.795Z" fill="#D8DEE8"/>
<path d="M90.1547 137.48L90.1067 137.483C88.6705 137.554 87.5039 136.47 87.5039 135.062V134.828C87.5039 133.419 88.6705 132.224 90.1067 132.159L90.1547 132.157C91.5875 132.091 92.7466 133.176 92.7466 134.578V134.811C92.7466 136.214 91.5875 137.409 90.1547 137.48Z" fill="#B19AF3"/>
<path d="M90.1322 137.98C88.4135 138.066 87.0117 136.715 87.0117 134.968C87.0117 133.221 88.4135 131.736 90.1322 131.658C91.8463 131.581 93.2374 132.933 93.2374 134.671C93.2374 136.41 91.8463 137.894 90.1322 137.98ZM90.1322 132.657C88.9567 132.711 87.9988 133.727 87.9988 134.921C87.9988 136.115 88.9567 137.04 90.1322 136.982C91.3055 136.924 92.2585 135.909 92.2585 134.718C92.2585 133.528 91.3056 132.603 90.1322 132.657Z" fill="#D8DEE8"/>
<mask id="mask2_9552_5818" style="mask-type:luminance" maskUnits="userSpaceOnUse" x="96" y="40" width="40" height="41">
<path d="M135.928 60.6154C135.928 71.6864 127.348 80.7059 116.598 80.7618C105.659 80.8187 96.6484 71.6028 96.6484 60.1767C96.6484 48.7505 105.659 39.7359 116.598 40.0371C127.348 40.3332 135.928 49.5443 135.928 60.6154Z" fill="white"/>
</mask>
<g mask="url(#mask2_9552_5818)">
<path d="M121.049 46.63C121.225 45.4482 123.632 44.589 125.671 44.7524C131.251 45.1993 137.154 53.5439 135.701 59.0261C134.428 63.8294 128.006 64.5979 128.194 68.4398C128.337 71.3602 132.15 72.8499 131.691 73.8067C131.208 74.8119 126.369 74.4813 123.772 71.3474C121.32 68.3882 121.885 64.1608 122.078 62.7224C122.884 56.6879 126.715 54.8255 125.671 51.6381C124.714 48.716 120.817 48.1918 121.049 46.63Z" fill="url(#paint6_linear_9552_5818)"/>
<path d="M95.0234 75.2563C95.0234 75.2563 113.975 63.8149 137.447 75.2239C137.447 75.2239 134.454 85.0204 116.597 85.6653C98.2112 86.3293 95.0234 75.2563 95.0234 75.2563Z" fill="url(#paint7_linear_9552_5818)"/>
<path d="M113.234 60.3618L112.524 65.8254C112.281 67.6896 111.038 69.2486 109.309 69.8529L103.531 71.8718C103.531 71.8718 114.591 77.375 128.576 71.8674L122.198 69.573C120.389 68.8699 119.156 67.101 119.077 65.0904L118.894 60.425L113.234 60.3618Z" fill="url(#paint8_linear_9552_5818)"/>
<path d="M113.983 64.06C111.077 63.2548 109.52 60.7993 108.597 59.3433C107.049 56.9028 104.914 51.8516 106.924 48.9809C107.816 47.7067 108.546 48.266 113.904 45.8568C117.053 44.4408 117.456 43.9515 118.619 44.094C121.907 44.4967 123.818 49.0404 124.075 49.651C124.412 50.4537 126.347 55.0543 123.92 59.3643C121.973 62.8199 117.778 65.1113 113.983 64.06Z" fill="url(#paint9_linear_9552_5818)"/>
<path d="M121.86 55.6342C121.86 60.2479 119.17 65.1848 115.834 65.1604C112.481 65.1358 109.75 60.1106 109.75 55.4518C109.75 50.793 112.481 48.3017 115.834 48.3715C119.17 48.4409 121.86 51.0205 121.86 55.6342Z" fill="url(#paint10_linear_9552_5818)"/>
<path d="M109.547 58.4536C110.125 58.4284 109.291 53.5801 111.53 52.2634C113.016 51.3892 115.597 52.2292 117.048 53.8263C119.336 56.3439 118.056 59.9136 119.789 60.6955C120.889 61.1919 122.358 60.1796 123.062 59.435C125.26 57.1092 124.96 52.1322 122.362 49.2926C120.291 47.0294 117.481 46.908 116.812 46.9004C112.988 46.8567 109.478 49.7451 108.673 53.1966C108.054 55.8489 109.12 58.4723 109.547 58.4536Z" fill="url(#paint11_linear_9552_5818)"/>
</g>
<path opacity="0.35" d="M121.843 119.526C120.692 105.136 129.325 99.1843 126.034 86.153C121.964 70.0358 106.286 69.3266 100.938 53.4883C98.9718 47.6669 98.1458 38.9924 103.256 26.5338L81.7951 25.7186C81.1567 25.6944 80.6367 26.1989 80.6367 26.8433V152.979C80.6367 153.624 81.1567 154.116 81.7951 154.076L140.424 150.418C126.571 138.875 122.522 128.004 121.843 119.526Z" fill="white"/>
<path d="M149.559 26.7069L81.7962 24.0442C80.2383 23.983 78.9727 25.2085 78.9727 26.7817V153.082C78.9727 154.655 80.2383 155.85 81.7962 155.75L149.559 151.434C150.953 151.345 152.081 150.071 152.081 148.587V29.4919C152.081 28.0085 150.953 26.7616 149.559 26.7069Z" fill="#D8DEE8"/>
<g opacity="0.3">
<path d="M121.844 119.526C120.693 105.136 129.326 99.1845 126.035 86.1532C121.965 70.0359 106.287 69.3268 100.939 53.4885C98.8882 47.4165 98.0779 38.2415 103.946 24.9146L81.7962 24.0442C80.2383 23.983 78.9727 25.2085 78.9727 26.7817V153.082C78.9727 154.655 80.2383 155.85 81.7962 155.75L142.253 151.899C126.927 139.816 122.552 128.37 121.844 119.526Z" fill="#D8DEE8"/>
</g>
<path d="M149.558 28.2925L81.7951 25.7186C81.1567 25.6944 80.6367 26.1989 80.6367 26.8433V152.979C80.6367 153.624 81.1567 154.116 81.7951 154.076L149.558 149.848C150.13 149.812 150.595 149.288 150.595 148.678V29.4367C150.595 28.8275 150.13 28.3143 149.558 28.2925Z" fill="url(#paint12_linear_9552_5818)"/>
<path d="M116.599 84.0198C103.912 84.119 93.3984 73.4075 93.3984 60.1404C93.3984 46.8732 103.912 36.3966 116.599 36.7792C129.033 37.1542 138.966 47.8592 138.966 60.6493C138.966 73.4394 129.033 83.9225 116.599 84.0198Z" fill="#D8DEE8"/>
<path d="M137.451 60.6323C137.451 72.5742 128.203 82.3152 116.601 82.3908C104.778 82.4678 95.0273 72.5146 95.0273 60.1585C95.0273 47.8024 104.778 38.0671 116.601 38.4081C128.203 38.7428 137.451 48.6904 137.451 60.6323Z" fill="white"/>
<path opacity="0.74" d="M141.989 92.4553L90.1306 93.2283C88.6812 93.2499 87.5039 94.4616 87.5039 95.9348C87.5039 97.4079 88.6812 98.5796 90.1306 98.552L141.989 97.5617C143.319 97.5363 144.396 96.3748 144.396 94.9676C144.396 93.5603 143.319 92.4355 141.989 92.4553Z" fill="url(#paint13_linear_9552_5818)"/>
<path d="M141.987 102.508L99.506 103.492C98.078 103.525 96.918 104.737 96.918 106.2C96.918 107.662 98.078 108.816 99.506 108.776L141.987 107.615C143.318 107.578 144.394 106.408 144.394 105.001C144.394 103.594 143.318 102.478 141.987 102.508Z" fill="#D8DEE8"/>
<path d="M90.1547 109.032L90.1067 109.033C88.6705 109.072 87.5039 107.962 87.5039 106.554V106.32C87.5039 104.911 88.6705 103.743 90.1067 103.709L90.1547 103.708C91.5875 103.675 92.7466 104.785 92.7466 106.188V106.421C92.7466 107.824 91.5875 108.993 90.1547 109.032Z" fill="#B19AF3"/>
<path d="M90.1322 109.532C88.4135 109.579 87.0117 108.197 87.0117 106.45C87.0117 104.702 88.4135 103.249 90.1322 103.21C91.8463 103.171 93.2374 104.554 93.2374 106.292C93.2374 108.031 91.8463 109.484 90.1322 109.532ZM90.1322 104.208C88.9567 104.236 87.9988 105.23 87.9988 106.425C87.9988 107.619 88.9567 108.565 90.1322 108.533C91.3055 108.502 92.2585 107.508 92.2585 106.317C92.2585 105.127 91.3056 104.18 90.1322 104.208Z" fill="#D8DEE8"/>
<path d="M141.987 111.604L99.506 112.905C98.078 112.949 96.918 114.169 96.918 115.632C96.918 117.094 98.078 118.239 99.506 118.189L141.987 116.71C143.318 116.664 144.394 115.486 144.394 114.079C144.394 112.671 143.318 111.563 141.987 111.604Z" fill="#D8DEE8"/>
<path d="M90.1547 118.515L90.1067 118.516C88.6705 118.566 87.5039 117.465 87.5039 116.057V115.823C87.5039 114.414 88.6705 113.237 90.1067 113.193L90.1547 113.191C91.5875 113.147 92.7466 114.249 92.7466 115.652V115.885C92.7466 117.287 91.5875 118.465 90.1547 118.515Z" fill="#B19AF3"/>
<path d="M90.1322 119.015C88.4135 119.075 87.0117 117.703 87.0117 115.956C87.0117 114.209 88.4135 112.745 90.1322 112.693C91.8463 112.641 93.2374 114.013 93.2374 115.752C93.2374 117.491 91.8463 118.954 90.1322 119.015ZM90.1322 113.691C88.9567 113.727 87.9988 114.729 87.9988 115.924C87.9988 117.118 88.9567 118.057 90.1322 118.016C91.3055 117.976 92.2585 116.975 92.2585 115.784C92.2585 114.594 91.3056 113.655 90.1322 113.691Z" fill="#D8DEE8"/>
<path d="M141.987 120.7L99.506 122.318C98.078 122.372 96.918 123.602 96.918 125.064C96.918 126.526 98.078 127.662 99.506 127.602L141.987 125.806C143.318 125.75 144.394 124.564 144.394 123.156C144.394 121.749 143.318 120.649 141.987 120.7Z" fill="#D8DEE8"/>
<path d="M90.1322 128.497C88.4135 128.571 87.0117 127.209 87.0117 125.462C87.0117 123.715 88.4135 122.24 90.1322 122.176C91.8463 122.111 93.2374 123.473 93.2374 125.212C93.2374 126.95 91.8463 128.424 90.1322 128.497ZM90.1322 123.174C88.9567 123.219 87.9988 124.228 87.9988 125.422C87.9988 126.617 88.9567 127.548 90.1322 127.499C91.3055 127.45 92.2585 126.442 92.2585 125.251C92.2585 124.061 91.3056 123.129 90.1322 123.174Z" fill="#D8DEE8"/>
<path d="M141.987 129.795L99.506 131.73C98.078 131.795 96.918 133.034 96.918 134.496C96.918 135.958 98.078 137.086 99.506 137.015L141.987 134.902C143.318 134.836 144.394 133.641 144.394 132.234C144.394 130.827 143.318 129.735 141.987 129.795Z" fill="#D8DEE8"/>
<path d="M90.1547 137.48L90.1067 137.483C88.6705 137.554 87.5039 136.47 87.5039 135.062V134.828C87.5039 133.419 88.6705 132.224 90.1067 132.159L90.1547 132.157C91.5875 132.091 92.7466 133.176 92.7466 134.578V134.811C92.7466 136.214 91.5875 137.409 90.1547 137.48Z" fill="#B19AF3"/>
<path d="M90.1322 137.98C88.4135 138.066 87.0117 136.715 87.0117 134.968C87.0117 133.221 88.4135 131.736 90.1322 131.658C91.8463 131.581 93.2374 132.933 93.2374 134.671C93.2374 136.41 91.8463 137.894 90.1322 137.98ZM90.1322 132.657C88.9567 132.711 87.9988 133.727 87.9988 134.921C87.9988 136.115 88.9567 137.04 90.1322 136.982C91.3055 136.924 92.2585 135.909 92.2585 134.718C92.2585 133.528 91.3056 132.603 90.1322 132.657Z" fill="#D8DEE8"/>
<path opacity="0.35" d="M121.843 119.526C120.692 105.136 129.325 99.1843 126.034 86.153C121.964 70.0358 106.286 69.3266 100.938 53.4883C98.9718 47.6669 98.1458 38.9924 103.256 26.5338L81.7951 25.7186C81.1567 25.6944 80.6367 26.1989 80.6367 26.8433V152.979C80.6367 153.624 81.1567 154.116 81.7951 154.076L140.424 150.418C126.571 138.875 122.522 128.004 121.843 119.526Z" fill="white"/>
<path d="M146.613 44.3525L140.41 39.5829L134.143 44.0617V29.0112C134.143 27.8377 133.598 26.7095 132.665 25.9532L132.617 25.9141L144.444 26.3645C145.643 26.4101 146.613 27.4212 146.613 28.6228V44.3525H146.613Z" fill="#D8DEE8"/>
<path d="M147.746 44.3527L141.543 39.3041L135.276 44.0448V28.1142C135.276 26.8721 134.731 25.6779 133.798 24.8774L133.75 24.8359L145.577 25.3127C146.776 25.361 147.746 26.4312 147.746 27.703V44.3527Z" fill="url(#paint14_linear_9552_5818)"/>
<path d="M139.858 90.1349C127.448 90.5302 117.156 80.4553 117.156 67.6687C117.156 54.8821 127.448 44.551 139.858 44.6373C152.01 44.7217 161.713 54.8041 161.713 67.114C161.713 79.4239 152.01 89.7478 139.858 90.1349Z" fill="url(#paint15_linear_9552_5818)"/>
<path d="M141.42 90.1349C129.01 90.5302 118.719 80.4553 118.719 67.6687C118.719 54.8821 129.01 44.551 141.42 44.6373C153.573 44.7217 163.275 54.8041 163.275 67.114C163.275 79.4239 153.573 89.7478 141.42 90.1349Z" fill="#D8DEE8"/>
<path d="M161.794 67.1321C161.794 78.6262 152.761 88.2197 141.42 88.5658C129.856 88.9186 120.312 79.5566 120.312 67.6486C120.312 55.7407 129.856 46.1409 141.42 46.2059C152.761 46.2696 161.794 55.6381 161.794 67.1321Z" fill="white"/>
<mask id="mask3_9552_5818" style="mask-type:luminance" maskUnits="userSpaceOnUse" x="121" y="47" width="40" height="41">
<path d="M160.31 67.1509C160.31 77.8073 151.929 86.6906 141.421 86.9972C130.721 87.3094 121.902 78.6403 121.902 67.6292C121.902 56.618 130.721 47.7293 141.421 47.7751C151.929 47.82 160.31 56.4945 160.31 67.1509Z" fill="white"/>
</mask>
<g mask="url(#mask3_9552_5818)">
<path d="M120.312 82.2525C120.312 82.2525 138.856 70.7885 161.794 81.2284C161.794 81.2284 158.872 90.7283 141.42 91.7723C123.433 92.8482 120.312 82.2525 120.312 82.2525Z" fill="url(#paint16_linear_9552_5818)"/>
<path d="M138.135 67.4273L137.44 72.7062C137.238 76.0621 133.98 77.3896 133.98 77.3896C137.805 81.9261 145.115 81.5813 147.672 77.1451C145.905 76.5121 143.925 73.7816 143.848 71.8471L143.669 67.3584L138.135 67.4273Z" fill="url(#paint17_linear_9552_5818)"/>
<path d="M146.568 62.6769C146.568 67.1196 143.938 71.9357 140.677 71.9891C137.398 72.0428 134.727 67.265 134.727 62.7772C134.727 58.2894 137.398 55.8278 140.677 55.8194C143.938 55.8109 146.568 58.2341 146.568 62.6769Z" fill="url(#paint18_linear_9552_5818)"/>
<path d="M134.548 63.9112C134.876 63.8555 135.204 63.7998 135.531 63.7442C135.381 63.3782 134.76 61.7568 135.531 60.3279C136.272 58.9568 138.015 58.2817 139.345 58.3651C140.857 58.4599 141.764 59.1642 142.522 58.6113C142.948 58.3006 143.086 57.7395 143.135 57.3028C143.169 57.5819 143.245 57.9946 143.441 58.4501C144.005 59.7586 144.959 60.026 145.479 60.8897C145.828 61.4711 146.056 62.4469 145.479 64.1729C145.767 64.1528 146.054 64.1326 146.342 64.1125C146.646 63.1435 147.01 61.77 147.237 60.0912C147.573 57.5986 147.805 55.8829 146.85 55.0502C146.659 54.8843 145.818 54.2264 143.802 54.8506C143.33 54.3514 142.335 53.4375 140.804 52.9773C140.274 52.8181 137.647 52.0285 135.316 53.7409C133.731 54.9057 132.488 57.0775 132.888 58.8699C133.099 59.8178 133.677 60.2412 134.185 62.073C134.4 62.8463 134.498 63.4976 134.548 63.9112Z" fill="url(#paint19_linear_9552_5818)"/>
<path d="M145.75 64.324C145.75 64.324 146.128 62.3742 147.277 62.5576C148.423 62.7405 146.78 65.9444 145.75 66.3396V64.324Z" fill="url(#paint20_linear_9552_5818)"/>
<path d="M135.462 64.4258C135.462 64.4258 135.077 62.4651 133.904 62.6698C132.729 62.8748 134.412 66.084 135.462 66.4591V64.4258Z" fill="url(#paint21_linear_9552_5818)"/>
</g>
<path d="M161.759 80.3936C161.389 80.911 161.02 81.4285 160.65 81.9459C162.274 83.153 164.23 85.0161 164.198 87.2683C164.15 90.6714 159.61 91.7725 159.319 95.2519C159.025 98.777 163.229 103.101 165.972 102.57C169.469 101.894 172.577 92.9474 169.299 86.603C167.213 82.5661 163.232 80.9197 161.759 80.3936Z" fill="url(#paint22_linear_9552_5818)"/>
<path opacity="0.3" d="M161.76 80.3936C161.794 80.8715 161.921 81.5863 162.425 82.1677C163.139 82.9892 163.999 82.8436 164.865 83.2765C166.628 84.1576 167.518 86.9863 167.082 89.2643C166.637 91.591 164.892 92.9114 164.421 93.2561C161.997 95.0326 159.903 94.1461 159.321 95.252C158.314 97.1624 162.772 103.19 165.974 102.57C169.47 101.894 172.579 92.9475 169.3 86.6031C167.214 82.5661 163.233 80.9197 161.76 80.3936Z" fill="url(#paint23_linear_9552_5818)"/>
<path d="M161.491 81.7531C161.491 81.7531 160.297 81.342 159.95 80.9384C159.603 80.5347 159.896 79.1272 159.91 78.0058C159.924 76.8844 160.44 78.5096 160.559 78.877C160.678 79.2444 160.595 80.0966 161.51 80.7608L161.491 81.7531Z" fill="url(#paint24_linear_9552_5818)"/>
<path d="M158.715 88.6154C158.283 87.7646 158.105 87.7696 157.999 87.3205C157.757 86.2971 158.381 84.9972 158.911 84.9792C159.252 84.9676 159.28 85.4981 160.003 86.325C160.888 87.338 161.425 87.205 161.946 88.0843C162.068 88.29 162.616 89.2159 162.279 89.9068C161.848 90.7887 160.152 90.9284 159.442 90.2481C159.106 89.9255 159.247 89.6636 158.715 88.6154Z" fill="url(#paint25_linear_9552_5818)"/>
<path d="M159.987 89.5336C159.987 89.5336 159.684 91.1507 159.899 92.4655C160.094 93.6538 162.296 94.8882 162.718 95.2423C163.139 95.5962 161.599 95.9803 160.185 95.7953C158.771 95.6104 154.901 94.3719 154.313 93.6816C153.725 92.9913 154.998 93.3315 156.068 93.2008C157.139 93.0701 158.161 91.2759 158.192 90.3602C158.223 89.4443 159.987 89.5336 159.987 89.5336Z" fill="url(#paint26_linear_9552_5818)"/>
<path d="M159.524 90.7404C159.524 90.7404 158.442 91.2155 157.484 90.4491C156.625 89.7628 157.901 87.6546 158.774 87.6277C159.066 87.6188 159.491 87.8274 159.742 88.1327C159.89 88.313 159.899 88.4331 160.147 88.723C160.375 88.9904 160.476 89.0145 160.511 89.1443C160.554 89.3066 160.479 89.5781 159.892 90.0447C160.185 89.9907 160.437 90.0679 160.535 90.2385C160.55 90.2657 160.583 90.3509 160.573 90.4387C160.538 90.7569 160.122 90.9042 159.524 90.7404Z" fill="url(#paint27_linear_9552_5818)"/>
<path d="M127.994 86.1245C127.994 86.1245 127.345 86.2541 127.126 85.005C126.954 84.0259 126.73 83.7543 126.569 83.9948C126.408 84.2353 126.564 84.7814 126.564 84.7814C126.564 84.7814 125.529 84.3793 124.889 83.6024C124.25 82.8255 124.301 83.6499 124.386 84.1201C124.471 84.5905 125.493 85.7863 125.888 85.938C126.283 86.0897 127.125 87.0715 127.125 87.0715L127.994 86.1245Z" fill="url(#paint28_linear_9552_5818)"/>
<path d="M149.115 155.446C149.452 156.134 149.358 156.429 149.274 156.559C149.028 156.941 148.435 156.581 146.889 156.764C146.707 156.785 146.361 156.832 145.929 156.73C145.559 156.643 145.123 156.446 145.141 156.347C145.148 156.311 145.214 156.296 145.239 156.291C145.668 156.2 148.355 155.375 148.355 155.375L149.115 155.446Z" fill="url(#paint29_linear_9552_5818)"/>
<path d="M149.696 154.07L149.24 155.283C149.17 155.469 148.999 155.598 148.801 155.613C148.6 155.628 148.381 155.57 148.352 155.26C148.313 154.835 148.539 153.76 148.539 153.76L149.696 154.07Z" fill="url(#paint30_linear_9552_5818)"/>
<path d="M167.738 152.043L168.387 153.814L169.329 153.664L169.11 152.024L167.738 152.043Z" fill="url(#paint31_linear_9552_5818)"/>
<path d="M168.679 154.789C169.135 154.248 169.542 154.297 169.624 153.925C169.689 153.633 169.51 153.274 169.24 153.138C168.86 152.947 168.401 153.246 168.297 153.313C167.591 153.772 167.784 154.489 167.118 154.8C166.985 154.862 166.773 154.929 166.549 155.138C166.454 155.227 166.219 155.448 166.274 155.599C166.338 155.775 166.757 155.769 167.156 155.763C167.634 155.756 167.873 155.753 168.103 155.609C168.422 155.41 168.327 155.206 168.679 154.789Z" fill="url(#paint32_linear_9552_5818)"/>
<path d="M166.255 115.084C166.805 118.622 166.918 121.716 166.849 124.271C166.775 127.019 166.533 127.536 166.694 129.398C167.044 133.449 168.432 133.784 169.493 138.24C170.665 143.162 170.068 147.353 169.825 148.955C169.613 150.355 169.332 151.506 169.11 152.31C168.728 152.791 168.003 152.766 167.241 152.752C166.144 148.294 165.029 144.115 163.931 139.658C161.815 133.037 159.698 126.418 157.582 119.798C160.473 118.227 163.364 116.656 166.255 115.084Z" fill="url(#paint33_linear_9552_5818)"/>
<path opacity="0.3" d="M167.241 152.752C166.144 148.294 165.029 144.115 163.931 139.657C161.815 133.037 159.698 126.418 157.582 119.798C160.473 118.226 163.364 116.656 166.255 115.084C166.291 115.319 166.321 115.546 166.354 115.776C162.726 120.315 162.426 123.439 162.84 125.456C163.341 127.902 164.907 128.873 165.298 132.482C165.578 135.062 164.895 135.651 165.316 137.949C165.86 140.907 167.434 142.337 168.366 143.933C169.267 145.476 169.909 147.777 169.365 151.317C169.277 151.689 169.19 152.023 169.11 152.31C168.728 152.791 168.003 152.766 167.241 152.752Z" fill="url(#paint34_linear_9552_5818)"/>
<path d="M161.217 119.387C161.148 121.084 160.865 123.652 159.762 126.521C158.284 130.368 156.663 131.29 155.992 134.505C155.292 137.862 156.575 139.176 156.64 142.268C156.701 145.163 155.687 149.302 150.67 154.464C149.857 154.39 149.044 154.316 148.23 154.242C148.883 151.74 149.749 147.838 150.185 142.956C150.403 140.51 150.433 138.723 150.448 138.053C150.541 133.995 151.118 127.094 153.27 114.643C155.919 116.224 158.568 117.805 161.217 119.387Z" fill="url(#paint35_linear_9552_5818)"/>
<path d="M126.5 86.6034C127.017 86.3077 127.535 86.012 128.052 85.7163C133.781 91.3475 138.773 92.9003 142.285 93.2721C147.589 93.8335 151.293 91.6766 158.367 93.1455C160.596 93.6082 164.48 94.4703 166.634 97.6449C167.2 98.4794 167.401 99.1112 168.342 105.097C169.543 112.75 169.586 114.085 169.417 115.733C169.107 118.748 168.919 120.575 167.528 122.192C163.837 126.487 155.99 124.273 155.006 123.981C153.189 123.443 150.364 122.606 149.242 120.205C148.41 118.424 149.303 117.376 149.581 113.91C149.722 112.164 150.16 106.704 147.568 103.458C145.705 101.125 143.115 100.984 140.58 100.191C136.568 98.9364 131.398 95.6434 126.5 86.6034Z" fill="url(#paint36_linear_9552_5818)"/>
<g opacity="0.3">
<path d="M164.21 120.147C162.054 118.201 160.78 118.798 159.465 117.253C156.427 113.682 160.948 107.804 158.282 104.985C156.147 102.728 152.07 105.249 149.74 102.574C148.194 100.799 149.586 99.2289 148.214 97.3933C146.042 94.4882 141.17 96.5692 134.798 94.7468C133.298 94.3177 131.969 93.7434 130.809 93.1221C134.308 97.3838 137.735 99.3012 140.58 100.191C143.115 100.984 145.705 101.125 147.568 103.458C150.16 106.704 149.722 112.163 149.582 113.91C149.303 117.376 148.41 118.424 149.242 120.205C150.364 122.606 153.189 123.443 155.006 123.981C155.906 124.248 162.538 126.118 166.491 123.157C165.955 122.109 165.223 121.061 164.21 120.147Z" fill="url(#paint37_linear_9552_5818)"/>
</g>
<path d="M86.5413 154.372C86.4696 154.992 86.1679 155.492 85.7706 155.649C84.7782 156.039 83.494 156.187 81.9927 156.189C80.4684 156.19 79.167 156.036 78.1665 155.639C77.7815 155.487 77.4859 155.011 77.4039 154.413L74.7422 135.014H88.7779L86.5413 154.372Z" fill="url(#paint38_linear_9552_5818)"/>
<path d="M81.76 136.093C85.6359 136.093 88.7779 135.61 88.7779 135.014C88.7779 134.418 85.6359 133.935 81.76 133.935C77.8842 133.935 74.7422 134.418 74.7422 135.014C74.7422 135.61 77.8842 136.093 81.76 136.093Z" fill="url(#paint39_linear_9552_5818)"/>
<path d="M82.339 134.94C82.8496 134.94 83.3602 134.94 83.8708 134.94C94.3912 127.45 96.3119 122.094 95.8718 118.46C95.4828 115.248 93.3364 114.103 90.1417 106.128C88.2373 101.374 87.2851 98.9966 87.3592 96.4149C87.5214 90.7724 91.0956 90.0366 93.0342 82.6639C93.807 79.7251 95.0872 74.8561 92.816 70.1133C90.3794 65.0252 85.0045 61.4997 83.656 62.4749C82.7618 63.1216 83.6454 65.7551 84.5217 68.3671C86.8429 75.2857 89.837 76.8728 90.1417 80.9177C90.3299 83.4165 89.31 84.4408 87.0318 89.2119C82.4184 98.8735 79.9249 104.096 80.9203 109.184C82.2816 116.142 89.0001 116.876 89.4328 122.935C89.7848 127.863 85.682 132.168 82.339 134.94Z" fill="url(#paint40_linear_9552_5818)"/>
<path d="M74.811 60.4004C73.3505 60.207 70.1686 66.4028 70.2274 73.0601C70.2845 79.5272 73.3473 80.472 74.2654 87.1385C75.4313 95.6053 70.8145 96.4308 71.537 104.709C72.1979 112.282 76.2306 113.532 78.5216 123.917C79.5313 128.494 79.6653 132.409 79.613 135.049C80.1223 135.049 80.6316 135.049 81.1408 135.049C84.2604 128.574 85.0476 123.194 85.1788 119.442C85.5142 109.857 81.6861 107.536 82.9961 98.1611C83.8669 91.93 85.9188 90.3749 85.0697 85.174C84.5463 81.9677 83.2229 79.2301 81.0317 74.6971C78.9393 70.3683 77.941 69.435 76.6663 65.6389C75.4799 62.1055 75.5329 60.4961 74.811 60.4004Z" fill="url(#paint41_linear_9552_5818)"/>
<path d="M77.9755 134.83C78.165 132.494 78.0589 129.176 76.3385 125.99C73.4424 120.628 69.0241 121.294 65.425 116.496C61.6396 111.45 61.03 103.385 63.4606 97.6153C65.7967 92.0695 69.9901 90.8388 70.0087 85.8288C70.0237 81.777 67.2303 78.8588 67.6077 78.6258C67.9961 78.3862 71.1584 81.3499 72.4237 85.7187C72.9183 87.4267 73.1219 89.3455 72.4237 94.5596C71.3697 102.431 70.1829 103.456 70.2269 106.346C70.3197 112.428 76.3086 113.175 79.3943 119.988C80.794 123.078 81.9208 127.867 80.2674 135.049C79.5034 134.976 78.7395 134.903 77.9755 134.83Z" fill="url(#paint42_linear_9552_5818)"/>
</g>
<defs>
<linearGradient id="paint0_linear_9552_5818" x1="120.195" y1="53.756" x2="138.912" y2="78.0262" gradientUnits="userSpaceOnUse">
<stop stop-color="#AA80F9"/>
<stop offset="0.9964" stop-color="#6165D7"/>
</linearGradient>
<linearGradient id="paint1_linear_9552_5818" x1="220.261" y1="92.7868" x2="164.041" y2="116.284" gradientUnits="userSpaceOnUse">
<stop stop-color="#FF9085"/>
<stop offset="1" stop-color="#FB6FBB"/>
</linearGradient>
<linearGradient id="paint2_linear_9552_5818" x1="77.1641" y1="89.8991" x2="150.272" y2="89.8991" gradientUnits="userSpaceOnUse">
<stop stop-color="#444B8C"/>
<stop offset="0.9964" stop-color="#26264F"/>
</linearGradient>
<linearGradient id="paint3_linear_9552_5818" x1="131.617" y1="25.8678" x2="136.536" y2="25.8678" gradientUnits="userSpaceOnUse">
<stop stop-color="#AB316D"/>
<stop offset="1" stop-color="#792D3D"/>
</linearGradient>
<linearGradient id="paint4_linear_9552_5818" x1="149.482" y1="32.3517" x2="98.5938" y2="115.622" gradientUnits="userSpaceOnUse">
<stop stop-color="white"/>
<stop offset="0.9964" stop-color="#EBEFF2"/>
</linearGradient>
<linearGradient id="paint5_linear_9552_5818" x1="87.5039" y1="95.5037" x2="144.396" y2="95.5037" gradientUnits="userSpaceOnUse">
<stop stop-color="#AA80F9"/>
<stop offset="0.9964" stop-color="#6165D7"/>
</linearGradient>
<linearGradient id="paint6_linear_9552_5818" x1="132.742" y1="43.2389" x2="126.466" y2="59.9331" gradientUnits="userSpaceOnUse">
<stop stop-color="#AB316D"/>
<stop offset="1" stop-color="#792D3D"/>
</linearGradient>
<linearGradient id="paint7_linear_9552_5818" x1="119.265" y1="61.2694" x2="114.889" y2="81.4478" gradientUnits="userSpaceOnUse">
<stop stop-color="#AA80F9"/>
<stop offset="0.9964" stop-color="#6165D7"/>
</linearGradient>
<linearGradient id="paint8_linear_9552_5818" x1="116.004" y1="62.2222" x2="116.087" y2="78.384" gradientUnits="userSpaceOnUse">
<stop offset="0.0036" stop-color="#F36F56"/>
<stop offset="1" stop-color="#FFC444"/>
</linearGradient>
<linearGradient id="paint9_linear_9552_5818" x1="130.058" y1="26.4251" x2="100.553" y2="82.3017" gradientUnits="userSpaceOnUse">
<stop stop-color="#AB316D"/>
<stop offset="1" stop-color="#792D3D"/>
</linearGradient>
<linearGradient id="paint10_linear_9552_5818" x1="118.304" y1="38.7545" x2="114.561" y2="63.9751" gradientUnits="userSpaceOnUse">
<stop offset="0.0036" stop-color="#F36F56"/>
<stop offset="1" stop-color="#FFC444"/>
</linearGradient>
<linearGradient id="paint11_linear_9552_5818" x1="127.274" y1="34.6392" x2="106.123" y2="74.6955" gradientUnits="userSpaceOnUse">
<stop stop-color="#AB316D"/>
<stop offset="1" stop-color="#792D3D"/>
</linearGradient>
<linearGradient id="paint12_linear_9552_5818" x1="149.482" y1="32.3517" x2="98.5938" y2="115.622" gradientUnits="userSpaceOnUse">
<stop stop-color="white"/>
<stop offset="0.9964" stop-color="#EBEFF2"/>
</linearGradient>
<linearGradient id="paint13_linear_9552_5818" x1="87.5039" y1="95.5037" x2="144.396" y2="95.5037" gradientUnits="userSpaceOnUse">
<stop stop-color="#AA80F9"/>
<stop offset="0.9964" stop-color="#6165D7"/>
</linearGradient>
<linearGradient id="paint14_linear_9552_5818" x1="148.997" y1="19.9734" x2="130.611" y2="52.5599" gradientUnits="userSpaceOnUse">
<stop stop-color="#FF9085"/>
<stop offset="1" stop-color="#FB6FBB"/>
</linearGradient>
<linearGradient id="paint15_linear_9552_5818" x1="117.156" y1="67.3914" x2="161.713" y2="67.3914" gradientUnits="userSpaceOnUse">
<stop stop-color="#444B8C"/>
<stop offset="0.9964" stop-color="#26264F"/>
</linearGradient>
<linearGradient id="paint16_linear_9552_5818" x1="120.312" y1="84.3444" x2="161.794" y2="84.3444" gradientUnits="userSpaceOnUse">
<stop stop-color="#AB316D"/>
<stop offset="1" stop-color="#792D3D"/>
</linearGradient>
<linearGradient id="paint17_linear_9552_5818" x1="140.784" y1="69.1534" x2="140.863" y2="84.4999" gradientUnits="userSpaceOnUse">
<stop offset="0.0036" stop-color="#F36F56"/>
<stop offset="1" stop-color="#FFC444"/>
</linearGradient>
<linearGradient id="paint18_linear_9552_5818" x1="143.044" y1="47.9816" x2="139.17" y2="71.9056" gradientUnits="userSpaceOnUse">
<stop offset="0.0036" stop-color="#F36F56"/>
<stop offset="1" stop-color="#FFC444"/>
</linearGradient>
<linearGradient id="paint19_linear_9552_5818" x1="141.007" y1="52.9396" x2="139.111" y2="64.65" gradientUnits="userSpaceOnUse">
<stop stop-color="#444B8C"/>
<stop offset="0.9964" stop-color="#26264F"/>
</linearGradient>
<linearGradient id="paint20_linear_9552_5818" x1="149.107" y1="48.9774" x2="145.246" y2="72.8252" gradientUnits="userSpaceOnUse">
<stop offset="0.0036" stop-color="#F36F56"/>
<stop offset="1" stop-color="#FFC444"/>
</linearGradient>
<linearGradient id="paint21_linear_9552_5818" x1="137.357" y1="47.0635" x2="133.476" y2="71.0347" gradientUnits="userSpaceOnUse">
<stop offset="0.0036" stop-color="#F36F56"/>
<stop offset="1" stop-color="#FFC444"/>
</linearGradient>
<linearGradient id="paint22_linear_9552_5818" x1="180.915" y1="120.327" x2="170.373" y2="102.255" gradientUnits="userSpaceOnUse">
<stop offset="0.0036" stop-color="#F36F56"/>
<stop offset="1" stop-color="#FFC444"/>
</linearGradient>
<linearGradient id="paint23_linear_9552_5818" x1="166.097" y1="78.5764" x2="165.004" y2="93.5672" gradientUnits="userSpaceOnUse">
<stop offset="0.0036" stop-color="#F36F56"/>
<stop offset="1" stop-color="#FFC444"/>
</linearGradient>
<linearGradient id="paint24_linear_9552_5818" x1="164.403" y1="88.1643" x2="160.337" y2="79.9588" gradientUnits="userSpaceOnUse">
<stop offset="0.0036" stop-color="#F36F56"/>
<stop offset="1" stop-color="#FFC444"/>
</linearGradient>
<linearGradient id="paint25_linear_9552_5818" x1="160.208" y1="89.5579" x2="160.024" y2="83.3002" gradientUnits="userSpaceOnUse">
<stop stop-color="#AB316D"/>
<stop offset="1" stop-color="#792D3D"/>
</linearGradient>
<linearGradient id="paint26_linear_9552_5818" x1="158.853" y1="80.2741" x2="158.362" y2="98.6601" gradientUnits="userSpaceOnUse">
<stop offset="0.0036" stop-color="#F36F56"/>
<stop offset="1" stop-color="#FFC444"/>
</linearGradient>
<linearGradient id="paint27_linear_9552_5818" x1="163.644" y1="86.6225" x2="157.572" y2="90.348" gradientUnits="userSpaceOnUse">
<stop offset="0.0036" stop-color="#F36F56"/>
<stop offset="1" stop-color="#FFC444"/>
</linearGradient>
<linearGradient id="paint28_linear_9552_5818" x1="129.463" y1="90.3334" x2="126.432" y2="85.4545" gradientUnits="userSpaceOnUse">
<stop offset="0.0036" stop-color="#F36F56"/>
<stop offset="1" stop-color="#FFC444"/>
</linearGradient>
<linearGradient id="paint29_linear_9552_5818" x1="145.977" y1="160.755" x2="149.122" y2="149.847" gradientUnits="userSpaceOnUse">
<stop stop-color="#444B8C"/>
<stop offset="0.9964" stop-color="#26264F"/>
</linearGradient>
<linearGradient id="paint30_linear_9552_5818" x1="148.226" y1="158.531" x2="151.533" y2="141.395" gradientUnits="userSpaceOnUse">
<stop stop-color="#FFC444"/>
<stop offset="0.9964" stop-color="#F36F56"/>
</linearGradient>
<linearGradient id="paint31_linear_9552_5818" x1="168.577" y1="156.037" x2="168.337" y2="138.586" gradientUnits="userSpaceOnUse">
<stop stop-color="#FFC444"/>
<stop offset="0.9964" stop-color="#F36F56"/>
</linearGradient>
<linearGradient id="paint32_linear_9552_5818" x1="167.372" y1="156.714" x2="170.516" y2="145.806" gradientUnits="userSpaceOnUse">
<stop stop-color="#444B8C"/>
<stop offset="0.9964" stop-color="#26264F"/>
</linearGradient>
<linearGradient id="paint33_linear_9552_5818" x1="162.521" y1="119.697" x2="171.84" y2="154.572" gradientUnits="userSpaceOnUse">
<stop stop-color="#444B8C"/>
<stop offset="0.9964" stop-color="#26264F"/>
</linearGradient>
<linearGradient id="paint34_linear_9552_5818" x1="162.521" y1="119.697" x2="171.84" y2="154.572" gradientUnits="userSpaceOnUse">
<stop stop-color="#444B8C"/>
<stop offset="0.9964" stop-color="#26264F"/>
</linearGradient>
<linearGradient id="paint35_linear_9552_5818" x1="132.956" y1="135.681" x2="168.489" y2="133.574" gradientUnits="userSpaceOnUse">
<stop stop-color="#444B8C"/>
<stop offset="0.9964" stop-color="#26264F"/>
</linearGradient>
<linearGradient id="paint36_linear_9552_5818" x1="167.557" y1="128.121" x2="157.015" y2="110.049" gradientUnits="userSpaceOnUse">
<stop offset="0.0036" stop-color="#F36F56"/>
<stop offset="1" stop-color="#FFC444"/>
</linearGradient>
<linearGradient id="paint37_linear_9552_5818" x1="142.218" y1="95.4698" x2="162.621" y2="126.517" gradientUnits="userSpaceOnUse">
<stop offset="0.0036" stop-color="#F36F56"/>
<stop offset="1" stop-color="#FFC444"/>
</linearGradient>
<linearGradient id="paint38_linear_9552_5818" x1="76.5646" y1="143.009" x2="94.4833" y2="149.032" gradientUnits="userSpaceOnUse">
<stop stop-color="#AB316D"/>
<stop offset="1" stop-color="#792D3D"/>
</linearGradient>
<linearGradient id="paint39_linear_9552_5818" x1="84.6431" y1="128.986" x2="77.4402" y2="144.047" gradientUnits="userSpaceOnUse">
<stop stop-color="#FFC444"/>
<stop offset="0.9964" stop-color="#F36F56"/>
</linearGradient>
<linearGradient id="paint40_linear_9552_5818" x1="97.565" y1="65.1163" x2="84.4688" y2="109.207" gradientUnits="userSpaceOnUse">
<stop stop-color="#AA80F9"/>
<stop offset="0.9964" stop-color="#6165D7"/>
</linearGradient>
<linearGradient id="paint41_linear_9552_5818" x1="80.5835" y1="61.3907" x2="74.2537" y2="137.348" gradientUnits="userSpaceOnUse">
<stop offset="0.0036" stop-color="#E38DDD"/>
<stop offset="1" stop-color="#9571F6"/>
</linearGradient>
<linearGradient id="paint42_linear_9552_5818" x1="62.0117" y1="106.831" x2="81.0893" y2="106.831" gradientUnits="userSpaceOnUse">
<stop stop-color="#AA80F9"/>
<stop offset="0.9964" stop-color="#6165D7"/>
</linearGradient>
<clipPath id="clip0_9552_5818">
<rect width="176" height="176" fill="white" transform="translate(44 3)"/>
</clipPath>
</defs>
</svg>
