<svg width="264" height="179" viewBox="0 0 264 179" fill="none" xmlns="http://www.w3.org/2000/svg">
<rect opacity="0.2" x="0.144531" width="263.855" height="178.916" rx="9.03614" fill="#3C8A6D"/>
<g clip-path="url(#clip0_9552_6356)">
<path d="M133.193 63.5023C136.94 63.5023 139.974 66.5315 139.974 70.2635C139.974 73.9956 136.936 77.0248 133.193 77.0248C130.881 77.0248 128.843 75.8685 127.617 74.1098V90.8935H145.988V91.8178C144.21 92.9984 143.036 95.0167 143.036 97.3086C143.036 100.951 145.998 103.904 149.651 103.904C153.303 103.904 156.265 100.951 156.265 97.3086C156.265 94.9267 154.994 92.8461 153.095 91.6863V90.8935H171.684V48.46H127.617V66.4173C128.843 64.6551 130.881 63.5023 133.193 63.5023Z" fill="#4DB49E"/>
<path d="M113.354 139.344C109.608 139.344 106.573 136.315 106.573 132.583C106.573 128.851 109.611 125.822 113.354 125.822C115.666 125.822 117.704 126.978 118.93 128.737V111.953H100.56V111.029C102.337 109.848 103.511 107.83 103.511 105.538C103.511 101.896 100.549 98.9429 96.8966 98.9429C93.2441 98.9429 90.2825 101.896 90.2825 105.538C90.2825 107.92 91.5532 110 93.4524 111.16V111.953H74.8633V154.387H118.93V136.429C117.704 138.191 115.666 139.344 113.354 139.344Z" fill="#01004E"/>
<path d="M160.03 116.007C160.03 119.742 156.992 122.768 153.249 122.768C149.506 122.768 146.468 119.739 146.468 116.007C146.468 113.701 147.628 111.669 149.392 110.447H132.56V128.764H131.632C130.449 126.992 128.424 125.821 126.126 125.821C122.473 125.821 119.512 128.775 119.512 132.417C119.512 136.059 122.473 139.012 126.126 139.012C128.515 139.012 130.601 137.745 131.764 135.851H132.56V154.386H175.116V110.447H157.107C158.874 111.669 160.03 113.701 160.03 116.007Z" fill="#FFD05C"/>
<path d="M85.0468 86.8395C85.0468 83.104 88.0848 80.0783 91.8276 80.0783C95.5705 80.0783 98.6085 83.1075 98.6085 86.8395C98.6085 89.1452 97.4488 91.1774 95.685 92.3995H112.517V74.0821H113.444C114.628 75.8546 116.652 77.0248 118.951 77.0248C122.604 77.0248 125.565 74.0717 125.565 70.4297C125.565 66.7877 122.604 63.8346 118.951 63.8346C116.562 63.8346 114.476 65.1017 113.312 66.9954H112.517V48.46H69.9609V92.3995H87.9702C86.203 91.1774 85.0468 89.1452 85.0468 86.8395Z" fill="#FF5F00"/>
<path d="M62.3393 124.869C63.1517 130.443 64.1135 134.483 67.2348 134.563C70.3596 134.639 71.2207 129.958 72.2206 124.419C73.4254 117.758 70.8318 114.241 67.707 114.165C64.5822 114.088 61.3393 118.021 62.3358 124.873L62.3393 124.869Z" fill="#01004E"/>
<path d="M64.5601 118.579C64.508 120.781 65.8551 122.599 67.5668 122.644C69.2785 122.685 70.7055 120.933 70.7576 118.732C70.8097 116.53 69.4625 114.712 67.7508 114.667C66.0391 114.626 64.6121 116.374 64.5601 118.576V118.579Z" fill="#F7A772"/>
<path d="M71.8947 119.015C71.8947 119.015 68.1762 117.426 67.6797 114.248C67.6797 114.248 71.8322 114.947 71.8947 119.015Z" fill="#01004E"/>
<path d="M63.2148 118.527C63.2148 118.527 67.3569 117.606 68.4576 114.418C68.4576 114.418 64.0308 114.331 63.2148 118.527Z" fill="#01004E"/>
<path d="M66.4336 124.683L68.0099 124.776L68.1592 122.131L66.5794 122.038L66.4336 124.683Z" fill="#F7A772"/>
<path d="M66.3117 125.195C66.3117 125.195 59.0239 120.611 57.8677 114.352L57.3643 114.435C57.3643 114.435 56.5866 119.725 65.6659 127.279L66.3117 125.195Z" fill="#F7A772"/>
<path d="M57.952 114.975C57.952 114.975 59.6116 113.736 59.3929 113.514C59.1741 113.293 58.2957 114.158 58.2957 114.158C58.2957 114.158 58.6811 111.71 58.4693 111.728C58.2575 111.745 57.9381 113.272 57.9381 113.272C57.9381 113.272 58.1048 111.434 57.8617 111.458C57.6187 111.482 57.5562 113.206 57.5562 113.206C57.5562 113.206 57.4659 111.638 57.2402 111.676C57.0146 111.714 57.1743 113.178 57.1743 113.178C57.1743 113.178 56.7264 111.922 56.6257 111.949C56.4625 111.994 56.7715 113.964 56.7715 113.964C56.7715 113.964 56.9451 115.217 57.8756 114.992" fill="#F7A772"/>
<path d="M68.6414 125.101C68.6414 125.101 73.9535 131.987 80.1302 132.402L80.1129 132.929C80.1129 132.929 75.1062 134.369 66.7109 126.015L68.6414 125.101Z" fill="#F7A772"/>
<path d="M79.5089 132.389C79.5089 132.389 80.5018 130.544 80.7414 130.737C80.981 130.931 80.2553 131.939 80.2553 131.939C80.2553 131.939 82.5677 131.246 82.5781 131.464C82.5885 131.683 81.1511 132.195 81.1511 132.195C81.1511 132.195 82.9045 131.8 82.9079 132.053C82.9149 132.306 81.2622 132.579 81.2622 132.579C81.2622 132.579 82.7864 132.482 82.776 132.714C82.7691 132.946 81.3351 132.963 81.3351 132.963C81.3351 132.963 82.6024 133.268 82.5885 133.375C82.5642 133.549 80.6268 133.472 80.6268 133.472C80.6268 133.472 79.3943 133.448 79.4984 132.472" fill="#F7A772"/>
<path d="M70.3527 146.116L69.2209 158.53L68.4292 158.544L68.1445 145.773L70.3527 146.116Z" fill="#F7A772"/>
<path d="M69.3437 157.156C69.3437 157.156 71.6422 157.703 73.2046 159.739L71.4199 159.753L69.0937 158.932L69.0451 159.753H68.3438L68.375 157.219L69.3402 157.156H69.3437Z" fill="#01004E"/>
<path d="M65.7407 145.423L65.7338 157.91L64.9491 158.014L63.5117 145.333L65.7407 145.423Z" fill="#F7A772"/>
<path d="M64.8513 157.163C64.8513 157.163 62.4452 157.703 60.8828 159.739L62.6674 159.753L64.9937 158.932L65.0423 159.753H65.7436V157.222L64.8548 157.167L64.8513 157.163Z" fill="#01004E"/>
<path d="M69.7838 135.131C67.3743 131.184 73.8808 126.306 67.3361 124.364C60.7705 122.415 66.2389 132.61 64.621 134.895C63.003 137.18 62.3398 147.5 62.3398 147.5L72.1934 147.653C72.1934 147.653 72.1934 139.077 69.7804 135.131H69.7838Z" fill="#FF5F00"/>
<path d="M138.281 124.762C138.812 124.717 147.881 122.522 153.339 118.229L153.443 119.452C153.443 119.452 144.35 126.905 138.528 127.636L138.281 124.762Z" fill="#CE854A"/>
<path d="M138.276 124.727L138.078 128.937L144.602 126.749L143.307 123.318L138.276 124.727Z" fill="#2E7A68"/>
<path d="M153.415 119.469C153.415 119.469 154.332 118.78 154.012 117.914C153.693 117.049 153.325 116.509 153.551 116.266C153.922 115.868 154.148 115.453 153.912 115.314C153.624 115.145 153.408 115.768 153.131 116.055C152.835 116.36 152.954 117.665 153.21 118.513C153.45 119.299 153.412 119.469 153.412 119.469H153.415Z" fill="#CE854A"/>
<path d="M136.576 137.731C136.576 137.731 136.621 151.295 136.847 156.415L135.354 156.474C135.354 156.474 133.368 148.951 133.663 138.624L136.579 137.731H136.576Z" fill="#01004E"/>
<path d="M136.826 155.948C136.826 155.948 138.403 155.927 140.666 157.828L135.521 157.706L135.281 156.09L136.83 155.948H136.826Z" fill="#D24E00"/>
<path d="M131.534 134.688C131.534 134.688 128.528 144.136 129.534 156.883L130.986 156.834L134.451 135.91L131.531 134.688H131.534Z" fill="#2D3570"/>
<path d="M131.999 134.667C132.27 134.567 138.352 135.931 138.352 135.931C138.352 135.931 137.245 139.521 134.387 139.275C130.905 138.977 131.999 134.667 131.999 134.667Z" fill="#2D3570"/>
<path d="M131.037 156.706C131.037 156.706 132.614 156.685 134.877 158.585L129.732 158.464L129.492 156.848L131.041 156.706H131.037Z" fill="#FF5F00"/>
<path d="M139.682 121.023L138.543 123.658L140.019 124.143L141.078 121.325L139.682 121.023Z" fill="#F7A772"/>
<path d="M139.201 121.414L137.298 122.051C137.298 122.051 134.681 117.755 135.444 116.356C136.17 115.027 141.274 112.887 142.18 113.213C143.083 113.538 142.736 116.668 142.736 116.668L139.205 121.414H139.201Z" fill="#01004E"/>
<path d="M144.483 117.579C143.445 114.3 141.424 115.02 140.087 115.543C138.643 116.107 137.522 116.727 137.685 118.555C137.591 118.551 137.497 118.555 137.404 118.583C136.883 118.738 136.605 119.355 136.786 119.964C136.966 120.573 137.536 120.94 138.056 120.784C138.16 120.753 138.247 120.701 138.331 120.639C139.213 122.197 141.896 122.716 143.296 122.121C145.018 121.387 145.174 119.773 144.48 117.579H144.483Z" fill="#F7A772"/>
<path d="M137.195 117.613L138.542 120.036L140.126 119.583L138.376 115.716L137.195 117.613Z" fill="#01004E"/>
<path d="M130.625 134.902C130.625 134.902 132.663 138.351 139.128 137.495C139.128 137.495 143.694 123.492 139.322 123.433C134.951 123.374 130.625 134.899 130.625 134.899V134.902Z" fill="#4DB49E"/>
<path d="M138.003 125.811C138.524 125.922 147.843 126.434 154.311 123.896L154.058 125.098C154.058 125.098 143.191 129.612 137.406 128.632L138.003 125.811Z" fill="#F7A772"/>
<path d="M138.011 125.776L136.602 129.751L143.48 129.536L143.237 125.88L138.011 125.776Z" fill="#4DB49E"/>
<path d="M153.852 125.181C153.852 125.181 154.945 124.831 154.931 123.91C154.917 122.989 154.664 122.366 154.959 122.207C155.317 122.017 155.792 121.653 155.622 121.425C155.442 121.186 155.164 121.618 154.796 121.812C154.421 122.01 154.018 123.318 153.98 124.208C153.945 125.032 153.855 125.177 153.855 125.177L153.852 125.181Z" fill="#F7A772"/>
<path d="M175.968 60.6634L182.173 56.8829C182.173 56.8829 183.527 44.8629 182.798 43.4469C182.103 42.1002 177.052 39.8395 176.138 40.1477C175.225 40.4523 175.5 43.5889 175.5 43.5889L175.968 60.6668V60.6634Z" fill="#01004E"/>
<path d="M179.145 54.0685C179.665 54.1862 188.338 57.617 193.144 62.6299L193.418 61.4321C193.418 61.4321 185.453 52.7875 179.79 51.2573L179.145 54.0685Z" fill="#CE854A"/>
<path d="M193.388 61.4111C193.388 61.4111 194.197 62.2212 193.763 63.0348C193.326 63.8449 192.885 64.3296 193.076 64.6031C193.388 65.0497 193.551 65.4928 193.301 65.5967C192.992 65.7248 192.867 65.0774 192.631 64.7554C192.381 64.4127 192.68 63.1387 193.055 62.332C193.402 61.5842 193.388 61.4146 193.388 61.4146V61.4111Z" fill="#CE854A"/>
<path d="M181.157 64.79C181.157 64.79 180.824 78.7765 180.477 83.8898L182.022 84.0698C182.022 84.0698 184.101 76.083 184.053 65.7525L181.157 64.79Z" fill="#F7A772"/>
<path d="M180.475 83.8899C180.475 83.8899 178.899 83.831 176.594 85.6797H181.743L182.02 84.0699L180.475 83.8899Z" fill="#01004E"/>
<path d="M186.268 61.8682C186.268 61.8682 189.049 71.3852 187.74 84.1045L186.289 84.0214L184.945 62.3875L186.265 61.8716L186.268 61.8682Z" fill="#F7A772"/>
<path d="M186.241 83.8899C186.241 83.8899 184.665 83.831 182.359 85.6797H187.508L187.786 84.0699L186.241 83.8899Z" fill="#01004E"/>
<path d="M178.45 48.0132L179.526 50.672L178.04 51.122L177.047 48.2798L178.45 48.0132Z" fill="#F7A772"/>
<path d="M173.73 44.4544C174.844 41.2001 176.848 41.9686 178.171 42.5226C179.601 43.118 180.709 43.7689 180.5 45.5899C180.594 45.5899 180.688 45.5968 180.782 45.6245C181.299 45.7907 181.559 46.4138 181.365 47.0197C181.17 47.6221 180.591 47.9787 180.073 47.8125C179.973 47.7813 179.882 47.7259 179.803 47.6602C178.882 49.1973 176.188 49.6508 174.806 49.0242C173.102 48.2487 172.983 46.6319 173.73 44.4544Z" fill="#F7A772"/>
<path d="M181.202 44.6066L179.907 46.3999C179.643 46.1333 179.272 45.6867 179.004 45.0463C178.605 44.0873 178.622 42.8202 178.678 42.4048C180.407 42.4048 181.428 43.5195 181.202 44.6031V44.6066Z" fill="#01004E"/>
<path d="M187.171 62.1035C187.171 62.1035 186.886 62.8721 180.442 61.8681C180.442 61.8681 174.376 50.3916 178.748 50.4367C183.119 50.4817 187.171 62.107 187.171 62.107V62.1035Z" fill="#FFD05C"/>
<path d="M178.085 52.4724C178.155 52.9986 177.939 62.3044 174.895 68.5325L176.113 68.3733C176.113 68.3733 181.477 57.925 180.95 52.0985C180.613 51.4719 179.908 51.143 179.245 51.2918C178.672 51.4199 178.217 51.8804 178.082 52.4724H178.085Z" fill="#F7A772"/>
<path d="M176.215 68.1763C176.215 68.1763 175.781 69.2356 174.861 69.1491C173.941 69.0625 173.337 68.7613 173.156 69.0418C172.937 69.3845 172.535 69.8276 172.323 69.6407C172.097 69.4434 172.552 69.201 172.778 68.8479C173.007 68.4913 174.347 68.1901 175.236 68.2247C176.062 68.2559 176.215 68.1763 176.215 68.1763Z" fill="#F7A772"/>
<path d="M186.545 60.4731C186.545 60.4731 189.208 63.7551 188.763 73.5837L178.625 73.3067C178.625 73.3067 181.17 66.4797 180.441 61.8683L186.545 60.4731Z" fill="#2E7A68"/>
<path d="M111.012 33.8989C111.484 34.117 120.181 36.5716 126.792 35.4464L126.313 36.5681C126.313 36.5681 115.154 38.7042 109.887 36.5335L111.012 33.9024V33.8989Z" fill="#CE854A"/>
<path d="M111.028 33.8643L108.906 37.4543L115.444 38.6868L115.944 35.0621L111.028 33.8643Z" fill="#2E7A68"/>
<path d="M126.281 36.5682C126.281 36.5682 127.378 36.4055 127.507 35.495C127.635 34.5845 127.576 33.9336 127.882 33.8297C128.382 33.6601 128.764 33.4039 128.632 33.172C128.469 32.8846 127.996 33.3278 127.625 33.442C127.233 33.5666 126.729 34.7645 126.552 35.6334C126.389 36.4401 126.281 36.5682 126.281 36.5682Z" fill="#CE854A"/>
<path d="M120.298 60.1442C120.298 60.1442 121.801 60.39 123.652 62.6472L118.773 61.6536L118.801 60.0195L120.298 60.1442Z" fill="#D24E00"/>
<path d="M110.295 46.2167C110.295 46.2167 119.506 45.2266 120.694 48.2247C121.822 51.0704 121.176 60.5147 121.176 60.5147L118.222 60.4524C118.222 60.4524 119.93 49.8518 117.927 48.9655C115.923 48.0758 109.969 48.0862 109.969 48.0862L110.292 46.2167H110.295Z" fill="#01004E"/>
<path d="M105.454 45.2539C105.693 45.112 111.7 45.4513 111.7 45.4513C111.7 45.4513 111.238 49.1729 108.481 49.4049C105.12 49.6853 105.45 45.2539 105.45 45.2539H105.454Z" fill="#2D3570"/>
<path d="M117.376 60.7811C117.376 60.7811 118.262 61.2415 119.678 63.8103L115.199 61.7054L115.901 60.2202L117.376 60.7811Z" fill="#FF5F00"/>
<path d="M107.213 47.0512C107.213 47.0512 116.424 46.0611 117.612 49.0591C118.74 51.9049 118.094 61.3492 118.094 61.3492L115.14 61.2869C115.14 61.2869 116.848 50.6863 114.845 49.8C112.841 48.9137 106.887 48.9207 106.887 48.9207L107.21 47.0512H107.213Z" fill="#2D3570"/>
<path d="M110.732 30.5269L109.965 33.2791L111.44 33.5769L112.104 30.6515L110.732 30.5269Z" fill="#F7A772"/>
<path d="M109.361 29.883L107.424 29.8588C107.424 29.8588 106.382 24.9427 107.521 23.873C108.601 22.8552 113.934 22.509 114.656 23.1148C115.378 23.7207 114.08 26.5595 114.08 26.5595L109.365 29.8795L109.361 29.883Z" fill="#01004E"/>
<path d="M115.385 27.9926C115.468 24.5583 113.396 24.5756 112.014 24.6276C110.517 24.6864 109.299 24.9045 108.875 26.684C108.792 26.6494 108.705 26.6251 108.611 26.6182C108.087 26.594 107.642 27.0856 107.615 27.7191C107.587 28.3527 107.993 28.8858 108.517 28.9135C108.622 28.917 108.719 28.8996 108.812 28.865C109.128 30.6237 111.413 31.9947 112.878 31.8908C114.68 31.7627 115.329 30.2914 115.385 27.9891V27.9926Z" fill="#F7A772"/>
<path d="M108.723 25.6355L109.191 28.367L110.782 28.457L110.396 24.2334L108.723 25.6355Z" fill="#01004E"/>
<path d="M104.09 45.3651C104.09 45.3651 106.729 48.3078 112.641 46.1164C112.641 46.1164 114.027 31.4722 109.895 32.3308C105.763 33.1928 104.09 45.3651 104.09 45.3651Z" fill="#4DB49E"/>
<path d="M112.003 36.1525C111.771 36.6268 108.958 45.4514 109.712 52.3373L108.653 51.7764C108.653 51.7764 107.153 40.1373 109.517 34.8335L112.003 36.1525Z" fill="#F7A772"/>
<path d="M112.034 36.1697L108.673 33.7637L107.148 40.4349L110.627 41.1654L112.034 36.1697Z" fill="#4DB49E"/>
<path d="M108.625 51.5586C108.625 51.5586 108.677 52.7011 109.542 52.9296C110.406 53.1581 111.052 53.0784 111.125 53.4039C111.212 53.7985 111.434 54.3525 111.691 54.2486C111.958 54.1413 111.625 53.757 111.535 53.3485C111.444 52.9365 110.323 52.2026 109.5 51.9325C108.74 51.6833 108.625 51.5552 108.625 51.5552V51.5586Z" fill="#F7A772"/>
<path d="M175.202 85.3926L175.112 85.8357H175.098L158.172 158.305H158.911L159.897 154.092L171.99 154.161L171.004 158.378H171.744L188.566 86.3585L188.67 85.9153L188.774 85.4722L175.202 85.396V85.3926ZM163.064 140.532L175.157 140.601L173.782 146.493L161.689 146.424L163.064 140.532ZM163.272 139.642L164.647 133.75L176.74 133.819L175.365 139.711L163.272 139.642ZM164.855 132.86L166.23 126.968L178.323 127.037L176.948 132.929L164.855 132.86ZM166.439 126.078L167.814 120.186L179.907 120.255L178.532 126.147L166.439 126.078ZM168.022 119.296L169.397 113.403L181.49 113.473L180.115 119.365L168.022 119.296ZM169.605 112.514L170.98 106.621L183.073 106.691L181.698 112.583L169.605 112.514ZM171.188 105.732L172.563 99.8394L184.656 99.9087L183.281 105.801L171.188 105.732ZM172.772 98.9497L174.147 93.0574L186.24 93.1266L184.865 99.0189L172.772 98.9497ZM160.102 153.196L161.477 147.303L173.57 147.372L172.195 153.265L160.102 153.196ZM186.448 92.2369L174.355 92.1677L175.73 86.2754L187.823 86.3446L186.448 92.2369Z" fill="#01004E"/>
<path d="M175.34 85.4688L175.444 85.9119L175.548 86.3551L192.37 158.378H193.11L192.124 154.158L204.217 154.089L205.203 158.305H205.942L189.016 85.8323H189.002L188.912 85.3892L175.34 85.4653V85.4688ZM202.428 146.424L190.335 146.493L188.961 140.601L201.054 140.532L202.428 146.424ZM188.752 139.711L187.377 133.819L199.47 133.75L200.845 139.642L188.752 139.711ZM187.169 132.929L185.794 127.037L197.887 126.968L199.262 132.86L187.169 132.929ZM185.586 126.147L184.211 120.255L196.304 120.186L197.679 126.078L185.586 126.147ZM184.003 119.365L182.628 113.473L194.721 113.404L196.095 119.296L184.003 119.365ZM182.419 112.583L181.044 106.691L193.137 106.622L194.512 112.514L182.419 112.583ZM180.836 105.801L179.461 99.9087L191.554 99.8395L192.929 105.732L180.836 105.801ZM179.253 99.019L177.878 93.1267L189.971 93.0575L191.346 98.9497L179.253 99.019ZM191.922 153.265L190.547 147.373L202.64 147.303L204.015 153.196L191.922 153.265ZM176.291 86.3481L188.384 86.2789L189.759 92.1712L177.666 92.2404L176.291 86.3481Z" fill="#2D3570"/>
</g>
<defs>
<clipPath id="clip0_9552_6356">
<rect width="149.369" height="140.749" fill="white" transform="translate(56.5781 19)"/>
</clipPath>
</defs>
</svg>
