<svg width="264" height="179" viewBox="0 0 264 179" fill="none" xmlns="http://www.w3.org/2000/svg">
<rect opacity="0.2" x="0.0351562" width="263.855" height="178.916" rx="9.03614" fill="#3C8A6D"/>
<g clip-path="url(#clip0_9552_5962)">
<path d="M110.418 57.9743C131.202 74.8083 152.696 92.2127 195.904 86.5604C207.522 85.0389 218.108 84.7155 227.526 85.5838C213.232 71.3463 198.576 80.486 170.059 56.0627C140.367 30.6343 112.352 17.0404 74.734 38.8737C74.4677 39.0289 74.2046 39.1844 73.9414 39.343C81.0017 39.679 89.3075 41.892 97.8229 48.115C102.093 51.2374 106.325 54.6613 110.418 57.9743Z" fill="#EAF4F2"/>
<path d="M172.719 135.737C163.38 129.91 153.764 125.773 144.913 123.772C135.361 121.617 126.954 122.06 120.597 125.05C96.3577 136.463 56.4729 134.25 35.4102 118.656C36.5072 132.947 41.1419 147.708 50.2943 161.856H201.489C194.147 151.711 183.384 142.391 172.719 135.737Z" fill="#EAF4F2"/>
<path d="M196.183 160.159H74.5049C74.0364 160.159 73.6562 160.539 73.6562 161.007C73.6562 161.476 74.0364 161.856 74.5049 161.856H196.183C196.651 161.856 197.031 161.476 197.031 161.007C197.031 160.539 196.651 160.159 196.183 160.159Z" fill="#CED8D6"/>
<path d="M189.482 111.773C168.644 92.1777 142.743 97.0316 117.695 101.723C103.195 104.44 89.4993 107.008 77.1955 104.856C67.6467 103.188 60.2442 99.2094 54.5665 92.6944C49.6779 87.0862 46.8849 80.5746 44.425 74.8333C44.2317 74.3799 44.0414 73.9361 43.8512 73.4985C37.5646 86.6868 34.2835 101.961 35.3516 117.834C56.0818 133.609 96.0838 135.892 120.33 124.479C126.816 121.426 135.366 120.966 145.054 123.154C153.972 125.17 163.657 129.332 173.057 135.197C183.525 141.728 193.042 150.05 199.849 158.625C200.705 159.704 201.516 160.781 202.28 161.856H213.316C213.316 161.856 223.682 151.023 231.018 136.494C228.339 135.813 225.581 134.909 222.763 133.793C211.607 129.371 200.099 121.756 189.482 111.773Z" fill="#EAF4F2"/>
<path d="M231.427 90.0823C230.352 88.6653 229.284 87.4067 228.215 86.2845C218.66 85.3334 207.869 85.6347 195.987 87.1879C190.268 87.9361 184.929 88.2849 179.917 88.2849C146.839 88.2849 128.163 73.1599 110.019 58.469C105.933 55.1594 101.707 51.7387 97.4495 48.6286C88.671 42.2088 80.1147 40.1163 72.9595 39.9453C61.109 47.332 50.9899 58.8526 44.2148 72.7412C44.478 73.3467 44.7412 73.9618 45.0074 74.583C49.9624 86.1449 56.1286 100.531 77.3025 104.231C89.4952 106.364 103.137 103.806 117.58 101.102C142.784 96.3785 168.843 91.4961 189.916 111.313C203.351 123.947 218.131 132.547 231.313 135.905C238.29 121.842 242.298 104.45 231.427 90.0823Z" fill="#EAF4F2"/>
<path d="M173.224 49.2008C175.903 44.597 155.071 34.6461 152.18 37.1202C149.289 39.5946 170.162 54.4643 173.224 49.2008Z" fill="#EAF4F2"/>
<path d="M147.857 34.6668C146.766 35.8454 149.304 37.4436 150.344 36.6115C151.384 35.7793 148.857 33.586 147.857 34.6668Z" fill="#EAF4F2"/>
<path d="M51.7463 49.9556C56.0157 52.7674 46.5877 63.3609 42.8663 62.902C39.1449 62.4435 47.4769 47.1437 51.7463 49.9556Z" fill="#EAF4F2"/>
<path d="M52.8352 48.3709C54.1362 50.4862 58.2504 47.1077 56.5136 45.4717C54.777 43.8356 51.8861 46.8274 52.8352 48.3709Z" fill="#EAF4F2"/>
<path d="M222.079 49.9556H178.598V79.3975H222.079V49.9556Z" fill="#FDD449"/>
<path d="M210.949 75.1895H189.73V56.061H190.481V74.4389H210.949V75.1895Z" fill="white"/>
<path d="M209.04 61.8459L208.81 60.1572L207.122 60.3874L206.502 61.2023L207.693 61.0396L203.477 66.5873L199.222 62.74L193.289 71.2963L193.873 71.7008L199.345 63.8095L203.574 67.6341L208.259 61.4699L208.421 62.6605L209.04 61.8459Z" fill="white"/>
<path d="M222.079 49.9556H178.598V53.6773H222.079V49.9556Z" fill="#FC694C"/>
<path d="M219.227 52.5607C219.661 52.5607 220.013 52.2089 220.013 51.775C220.013 51.341 219.661 50.9893 219.227 50.9893C218.793 50.9893 218.441 51.341 218.441 51.775C218.441 52.2089 218.793 52.5607 219.227 52.5607Z" fill="white"/>
<path d="M216.661 52.5607C217.095 52.5607 217.446 52.2089 217.446 51.775C217.446 51.341 217.095 50.9893 216.661 50.9893C216.227 50.9893 215.875 51.341 215.875 51.775C215.875 52.2089 216.227 52.5607 216.661 52.5607Z" fill="white"/>
<path d="M214.884 51.775C214.884 52.2087 214.532 52.5607 214.098 52.5607C213.664 52.5607 213.312 52.2091 213.312 51.775C213.312 51.3408 213.664 50.9893 214.098 50.9893C214.532 50.9893 214.884 51.3408 214.884 51.775Z" fill="white"/>
<path d="M87.3714 100.689H51.4777C50.077 100.689 48.9414 99.5537 48.9414 98.1529V73.1672C48.9414 71.7664 50.077 70.6309 51.4777 70.6309H87.3714C88.7721 70.6309 89.9077 71.7664 89.9077 73.1672V98.1529C89.9077 99.5537 88.7721 100.689 87.3714 100.689Z" fill="white" stroke="#444C72" stroke-width="2.7647" stroke-miterlimit="10"/>
<path d="M57.6139 73.2842H51.7422V81.6307H57.6139V73.2842Z" fill="#FC694C"/>
<path d="M55.308 74.3215C55.308 74.6696 55.0256 74.952 54.6774 74.952C54.3293 74.952 54.0469 74.6696 54.0469 74.3215C54.0469 73.9733 54.3293 73.6909 54.6774 73.6909C55.0256 73.6909 55.308 73.9733 55.308 74.3215Z" fill="#FDD449"/>
<path d="M65.7389 82.7007H59.8672V91.0472H65.7389V82.7007Z" fill="#FC694C"/>
<path d="M63.4369 83.7385C63.4369 84.0866 63.1545 84.369 62.8063 84.369C62.4582 84.369 62.1758 84.0866 62.1758 83.7385C62.1758 83.3903 62.4582 83.1079 62.8063 83.1079C63.1545 83.1076 63.4369 83.39 63.4369 83.7385Z" fill="#19888E"/>
<path d="M75.9108 74.2437H70.0391V82.5901H75.9108V74.2437Z" fill="#FDD449"/>
<path d="M73.6088 75.2814C73.6088 75.6296 73.3263 75.912 72.9782 75.912C72.6301 75.912 72.3477 75.6296 72.3477 75.2814C72.3477 74.9333 72.6301 74.6509 72.9782 74.6509C73.3267 74.6509 73.6088 74.933 73.6088 75.2814Z" fill="#FC694C"/>
<path d="M75.9108 89.6763H70.0391V98.0227H75.9108V89.6763Z" fill="#19888E"/>
<path d="M73.6088 90.7141C73.6088 91.0622 73.3263 91.3446 72.9782 91.3446C72.6301 91.3446 72.3477 91.0622 72.3477 90.7141C72.3477 90.3659 72.6301 90.0835 72.9782 90.0835C73.3267 90.0835 73.6088 90.3659 73.6088 90.7141Z" fill="#FC694C"/>
<path d="M151.223 161.856H138.305C138.305 161.856 138.625 160.122 139.706 159.041C140.784 157.96 145.083 157.031 145.739 156.435L145.701 155.512L145.685 155.129L145.612 153.303L150.827 154.137L151.03 155.956L151.043 156.083L151.223 157.687C151.223 157.687 151.756 160.122 151.223 161.856Z" fill="#F6B68E"/>
<path d="M151.044 156.083C149.215 156.67 146.935 155.988 145.702 155.513L145.686 155.129L145.613 153.303L150.828 154.137L151.031 155.957L151.044 156.083Z" fill="#C4764B"/>
<path d="M138.305 161.856H151.223C151.755 160.122 151.223 157.687 151.223 157.687C151.223 157.687 147.241 158.427 145.738 156.437C145.082 157.031 140.783 157.959 139.704 159.041C138.623 160.122 138.305 161.856 138.305 161.856Z" fill="#444C72"/>
<path d="M135.204 159.996H122.285C122.285 159.996 122.605 158.261 123.686 157.18C124.764 156.099 129.063 155.17 129.719 154.574L129.678 153.547L129.665 153.268L129.592 151.442L134.807 152.276L135.01 154.096L135.023 154.197L135.204 155.827C135.204 155.827 135.736 158.261 135.204 159.996Z" fill="#F6B68E"/>
<path d="M135.024 154.197C134.597 154.318 134.029 154.409 133.278 154.429C131.445 154.476 130.272 153.931 129.679 153.547L129.667 153.268L129.594 151.442L134.809 152.276L135.012 154.096L135.024 154.197Z" fill="#C4764B"/>
<path d="M122.285 159.995H135.203C135.736 158.261 135.203 155.826 135.203 155.826C135.203 155.826 131.222 156.566 129.718 154.576C129.062 155.17 124.763 156.099 123.685 157.18C122.603 158.261 122.285 159.995 122.285 159.995Z" fill="#444C72"/>
<path d="M150.914 108.305L149.932 129.99L151.855 154.573C151.855 154.573 148.63 155.813 144.66 154.573L141.062 130.238L139.496 115.606L137.547 131.003L135.462 153.25C135.462 153.25 132.502 154.408 128.863 152.588L129.773 129.597L131.437 108.407L150.914 108.305Z" fill="#444C72"/>
<path d="M122.285 89.2767L121.198 91.984C121.198 91.984 120.316 91.7398 119.381 91.4261C118.468 91.1216 117.504 90.7446 117.276 90.4656C116.813 89.9045 116.442 89.2165 116.065 88.6458C115.685 88.0721 115.805 87.2891 115.624 86.9307C115.447 86.5726 115.197 85.8305 115.479 85.6723C115.761 85.5137 116.851 86.7882 117.324 87.0005C117.793 87.2096 119.159 87.6187 119.159 87.6187L118.786 87.1718C118.786 87.1718 118.164 86.5629 118.12 86.2874C118.072 86.0115 118.345 85.9355 118.345 85.9355C118.345 85.9355 120.339 86.7851 120.789 87.2987C120.989 87.5206 121.296 87.9265 121.585 88.3101C121.952 88.811 122.285 89.2767 122.285 89.2767Z" fill="#F6B68E"/>
<path d="M122.287 89.277L121.199 91.9843C121.199 91.9843 120.318 91.7401 119.383 91.4264C120.705 90.4308 121.323 89.093 121.586 88.3101C121.954 88.8113 122.287 89.277 122.287 89.277Z" fill="#C4764B"/>
<path d="M134.693 81.2954L129.32 91.786L121.937 88.5222L120.461 92.3884L130.641 96.977L135.07 92.3884L134.693 81.2954Z" fill="#FC694C"/>
<path d="M151.466 108.495C151.466 108.495 150.474 108.935 148.746 109.395C145.186 110.34 138.512 111.37 131.027 108.805L132.108 100.69L132.603 96.9772L134.692 81.2943L138.934 78.7294L143.993 77.7466L148.657 80.8343C148.657 80.8343 149.196 83.2564 149.814 86.8736C150.803 92.6882 151.992 101.596 151.466 108.495Z" fill="#FC694C"/>
<path d="M151.467 108.495C151.467 108.495 150.475 108.935 148.747 109.395L148.059 103.257H141.671L138.133 102.823L132.109 100.69L132.604 96.9772L148.436 95.6297L147.97 86.8894C147.97 86.8894 148.721 86.8797 149.815 86.8735C150.804 92.6882 151.993 101.596 151.467 108.495Z" fill="#D64F38"/>
<path d="M140.73 63.3222C140.73 63.3222 139.521 60.3042 142.843 60.0129C142.843 60.0129 144.271 58.2062 146.107 59.2261C147.943 60.2461 147.535 62.1694 147.535 62.1694C147.535 62.1694 148.933 62.9269 148.613 64.5588C148.292 66.1908 146.194 66.8901 146.194 66.8901L140.73 63.3222Z" fill="#222850"/>
<path d="M142.84 63.51C142.84 63.51 143.452 62.8637 144.326 63.1578C145.2 63.4519 146.074 64.7632 145.375 65.6081C145.375 65.6081 143.86 65.0835 142.84 63.51Z" fill="#FC694C"/>
<path d="M135.905 70.707C135.905 70.707 134.888 70.2994 134.713 68.6386C134.538 66.9774 135.675 64.7046 137.714 64.4713C139.754 64.2381 140.891 62.4022 142.843 63.5095C144.796 64.6169 145.378 65.6076 145.378 65.6076C145.378 65.6076 147.156 66.9481 147.156 68.1721C147.156 69.396 146.602 69.9788 146.864 71.0569C147.126 72.135 145.734 75.3163 143.654 76.0132L135.905 70.707Z" fill="#222850"/>
<path d="M135.966 69.6003C135.966 69.6003 135.208 76.2405 138.938 76.5921V79.6245C138.938 79.6245 140.799 81.4748 144.238 78.9688L143.193 73.6798C143.193 73.6798 144.358 73.6798 144.591 72.2226C144.825 70.7654 142.959 69.8913 142.318 71.2319C142.318 71.2319 141.794 70.1246 140.745 70.0079C139.696 69.8913 137.86 69.7458 137.568 68.4634C137.569 68.4641 137.277 69.3089 135.966 69.6003Z" fill="#F6B68E"/>
<path d="M148.658 80.835C148.658 80.835 153.098 82.2017 154.652 99.3883C154.652 99.3883 150.378 101.929 142.219 101.831V98.4688L150.378 96.5262C150.378 96.5262 148.591 89.921 147.969 86.8904C147.347 83.8598 148.658 80.835 148.658 80.835Z" fill="#FC694C"/>
<path d="M142.218 98.7402V101.365C142.218 101.365 141.619 101.378 140.826 101.356C139.919 101.33 138.753 101.261 137.944 101.074C136.429 100.722 134.178 98.8004 134.692 98.7402C135.091 98.6958 139.387 98.7212 141.305 98.7309C141.863 98.7371 142.218 98.7402 142.218 98.7402Z" fill="#F6B68E"/>
<path d="M142.22 98.7402V101.365C142.22 101.365 141.621 101.378 140.828 101.356C141.209 100.319 141.294 99.2507 141.307 98.731C141.865 98.7371 142.22 98.7402 142.22 98.7402Z" fill="#C4764B"/>
<path d="M142.219 98.7409H127.221L124.715 86.0356H140.254L142.219 98.7409Z" fill="#FDD449"/>
<path d="M134.684 91.4116C134.477 92.445 133.143 93.1426 133.143 93.1426C133.143 93.1426 131.808 92.4453 131.602 91.4116C131.393 90.3748 132.41 89.9627 133.143 90.7267C133.875 89.9627 134.893 90.3751 134.684 91.4116Z" fill="white"/>
<path d="M142.218 98.7409L149.484 97.2256V96.2057L143.044 97.4733L141.311 86.0356H140.254L142.218 98.7409Z" fill="#E59A38"/>
<path d="M139.494 115.605L136.77 114.421L139.117 118.584L139.494 115.605Z" fill="#222850"/>
<path d="M138.938 76.5922C138.938 76.5922 141.341 76.7508 142.333 74.373C142.333 74.373 142.778 77.9087 138.938 78.3634V76.5922Z" fill="#C4764B"/>
<path d="M174.906 65.8977C174.906 65.8977 172.935 64.6452 173.928 62.5984C174.92 60.5516 177.339 59.404 179.076 60.0552C179.076 60.0552 180.099 58.8767 181.836 59.6211C183.573 60.3655 183.883 62.133 183.883 62.133C183.883 62.133 185.806 61.5127 186.55 63.3115C187.295 65.1103 186.147 66.692 186.147 66.692C186.147 66.692 187.729 67.4674 187.232 69.4832C186.736 71.4991 185.775 71.8403 185.775 71.8403C185.775 71.8403 185.896 73.8561 185.138 74.4454C184.379 75.0347 183.516 74.9432 183.516 74.9432L174.906 65.8977Z" fill="#222850"/>
<path d="M173.305 79.3975L169.151 94.0832C169.151 94.0832 168.867 100.083 170.833 109.221L172.478 105.779L173.305 79.3975Z" fill="#0A5B5B"/>
<path d="M189.462 161.856H176.543C176.543 161.856 176.863 160.122 177.944 159.041C179.022 157.96 183.321 157.031 183.977 156.435L183.939 155.547L183.923 155.129L183.85 153.303L189.065 154.137L189.24 155.712L189.268 155.956L189.462 157.687C189.462 157.687 189.994 160.122 189.462 161.856Z" fill="#F6B68E"/>
<path d="M176.547 161.857H189.465C189.997 160.123 189.465 157.687 189.465 157.687C189.465 157.687 185.484 158.428 183.98 156.437C183.324 157.031 179.025 157.96 177.947 159.041C176.865 160.123 176.547 161.857 176.547 161.857Z" fill="#444C72"/>
<path d="M173.442 159.996H160.523C160.523 159.996 160.844 158.261 161.925 157.18C163.002 156.099 167.301 155.17 167.958 154.574L167.923 153.766L167.904 153.268L167.831 151.442L173.046 152.276L173.249 154.096L173.271 154.305L173.443 155.827C173.442 155.827 173.975 158.261 173.442 159.996Z" fill="#F6B68E"/>
<path d="M173.25 154.096L173.272 154.305C171.399 155.053 169.154 154.308 167.924 153.766L167.905 153.268L167.832 151.442L173.047 152.276L173.25 154.096Z" fill="#C4764B"/>
<path d="M189.241 155.712C188.68 155.848 187.986 155.947 187.139 155.959C185.637 155.981 184.597 155.766 183.94 155.547L183.925 155.129L183.852 153.303L189.067 154.137L189.241 155.712Z" fill="#C4764B"/>
<path d="M160.523 159.995H173.441C173.974 158.261 173.441 155.826 173.441 155.826C173.441 155.826 169.46 156.566 167.957 154.576C167.301 155.17 163.001 156.099 161.923 157.18C160.842 158.261 160.523 159.995 160.523 159.995Z" fill="#444C72"/>
<path d="M188.651 108.302L188.17 129.991L190.093 154.573C190.093 154.573 186.868 155.814 182.898 154.573L179.3 130.239L177.735 115.606L175.786 131.004L173.701 153.25C173.701 153.25 170.74 154.408 167.102 152.589L168.011 129.598L171.026 107.818L188.651 108.302Z" fill="#444C72"/>
<path d="M189.184 108.178C187.802 108.517 186.464 108.758 185.187 108.923C176.453 110.055 170.41 107.598 170.41 107.598L173.308 79.399L178.294 77.1259L183.551 76.958L189.035 80.0681L189.073 87.0585L189.184 108.178Z" fill="#19888E"/>
<path d="M185.183 108.923L185.399 102.203L176.7 101.835L172.613 101.369L172.664 99.7837L185.957 97.2697L186.261 86.377C186.261 86.377 187.476 86.6625 189.07 87.0584L189.181 108.179C187.798 108.517 186.461 108.758 185.183 108.923Z" fill="#0A5B5B"/>
<path d="M175.081 64.8862C175.081 64.8862 172.889 74.8932 178.513 75.3892L178.223 77.6634C178.223 77.6634 179.877 79.3587 183.558 77.6634L183.475 72.7012C183.475 72.7012 184.013 72.5358 184.468 71.7088C184.922 70.8818 185.708 69.2279 184.468 68.8969C183.227 68.566 182.855 69.9306 182.855 69.9306L182.317 69.8481C182.317 69.8481 182.648 67.4497 182.069 67.2843C181.49 67.1188 180.684 67.9251 179.216 67.1394C177.748 66.3537 177.976 65.32 176.921 65.1958C175.866 65.0723 175.081 64.8862 175.081 64.8862Z" fill="#F6B68E"/>
<path d="M189.033 80.0684C189.033 80.0684 190.629 81.3821 191.498 84.9796C192.366 88.5772 192.474 97.116 192.391 98.3568C192.308 99.5972 184.241 101.044 176.88 100.838C176.88 100.838 176.042 100.368 176.662 97.5154L187.445 95.0279C187.445 95.0279 186.039 87.0058 186.246 84.9796C186.453 82.9535 187.685 80.7392 189.033 80.0684Z" fill="#19888E"/>
<path d="M174.897 93.8496L170.059 93.9738L170.752 100.689L174.203 100.607L174.897 93.8496Z" fill="white"/>
<path d="M176.699 100.63C176.699 100.63 176.03 100.737 175.181 100.725C174.547 100.718 173.812 100.642 173.174 100.404C171.684 99.8463 171.37 99.5102 171.297 99.3802C170.46 97.8776 170.701 96.4889 170.847 96.3241C170.993 96.1593 172.578 96.7837 173.095 96.8693C173.611 96.955 174.585 96.879 174.585 96.879L174.712 95.6299C175.118 95.8043 175.901 96.73 176.329 97.2687C176.512 97.5002 176.633 97.6588 176.633 97.6588L176.699 100.63Z" fill="#F6B68E"/>
<path d="M175.184 100.725C176.525 99.2066 176.331 97.2695 176.331 97.2695C176.515 97.501 176.636 97.6596 176.636 97.6596L176.702 100.63C176.702 100.63 176.033 100.737 175.184 100.725Z" fill="#C4764B"/>
<path d="M172.478 94.4154C173.814 94.4154 174.897 94.1621 174.897 93.8496C174.897 93.537 173.814 93.2837 172.478 93.2837C171.142 93.2837 170.059 93.537 170.059 93.8496C170.059 94.1621 171.142 94.4154 172.478 94.4154Z" fill="#CED8D6"/>
<path d="M177.733 115.606L175.641 113.429L177.259 119.354L177.733 115.606Z" fill="#222850"/>
<path d="M178.516 75.3889C178.516 75.3889 180.595 75.5929 182.207 73.2671C182.207 73.2671 182.132 76.5489 178.34 76.7687L178.516 75.3889Z" fill="#C4764B"/>
<path d="M93.7138 161.856H80.7953C80.2628 160.122 80.7953 157.687 80.7953 157.687L80.9886 155.956L80.9982 155.871L81.1916 154.137L86.4066 153.303L86.3337 155.129L86.3209 155.471L86.2797 156.435C86.936 157.031 91.2346 157.96 92.3127 159.041C93.3936 160.122 93.7138 161.856 93.7138 161.856Z" fill="#F6B68E"/>
<path d="M93.7131 161.856H80.7953C80.2628 160.122 80.7953 157.687 80.7953 157.687C80.7953 157.687 84.7764 158.427 86.28 156.437C86.936 157.031 91.2353 157.959 92.3134 159.041C93.3949 160.122 93.7131 161.856 93.7131 161.856Z" fill="#444C72"/>
<path d="M109.737 159.995H96.8187C96.2862 158.261 96.8187 155.827 96.8187 155.827L96.9549 154.603L97.012 154.096L97.215 152.276L102.43 151.442L102.357 153.268L102.354 153.372L102.303 154.574C102.96 155.17 107.258 156.099 108.337 157.18C109.417 158.261 109.737 159.995 109.737 159.995Z" fill="#F6B68E"/>
<path d="M81.1894 154.137L86.4045 153.303L86.3315 155.129L86.3188 155.471C83.7319 156.448 81.8172 156.111 80.9961 155.87L81.1894 154.137Z" fill="#C4764B"/>
<path d="M102.428 151.442L102.355 153.268L102.352 153.372C100.618 154.663 97.9328 154.653 96.9531 154.603L97.0102 154.095L97.2132 152.275L102.428 151.442Z" fill="#C4764B"/>
<path d="M109.733 159.995H96.8148C96.2823 158.261 96.8148 155.826 96.8148 155.826C96.8148 155.826 100.796 156.566 102.3 154.576C102.956 155.17 107.255 156.099 108.333 157.18C109.414 158.261 109.733 159.995 109.733 159.995Z" fill="#444C72"/>
<path d="M95.1757 64.8859C95.1757 64.8859 97.1605 63.5185 96.9538 60.5828C96.7471 57.6468 93.4392 57.4813 92.0329 57.9777C90.627 58.4737 90.0067 60.5828 89.0556 60.9137C88.1044 61.2446 84.7965 61.9887 84.8378 63.8081C84.8378 63.8081 82.7291 64.0562 82.8529 65.793C82.9771 67.5299 82.7139 72.8175 86.7532 74.3913L95.1757 64.8859Z" fill="#222850"/>
<path d="M81.6054 108.302L82.0867 129.99L80.1641 154.573C80.1641 154.573 83.3894 155.813 87.3592 154.573L90.9567 130.238L92.5226 115.606L94.4717 131.003L96.5563 153.25C96.5563 153.25 99.5165 154.408 103.155 152.588L102.245 129.597L99.2306 107.818L81.6054 108.302Z" fill="#444C72"/>
<path d="M115.689 73.9963C115.67 74.491 114.719 75.8983 114.034 76.856C113.641 77.4012 113.336 77.8006 113.336 77.8006L110.677 76.1965C110.677 76.1965 110.67 76.0318 110.664 75.7813C110.654 75.179 110.638 74.0758 110.677 73.5622C110.727 72.8332 111.875 70.8325 111.875 70.8325C111.875 70.8325 112.154 70.7249 112.293 70.988C112.433 71.2512 112.293 72.1673 112.293 72.1673L112.265 72.7854C112.265 72.7854 113.162 71.5618 113.425 71.0799C113.691 70.6014 113.799 68.8164 114.138 68.7689C114.481 68.7245 114.744 69.5136 114.823 69.9323C114.899 70.3509 115.505 70.9402 115.549 71.6695C115.597 72.3988 115.721 73.2196 115.689 73.9963Z" fill="#F6B68E"/>
<path d="M114.034 76.8559C113.641 77.4012 113.337 77.8006 113.337 77.8006L110.677 76.1965C110.677 76.1965 110.671 76.0317 110.664 75.7813C110.667 75.7782 110.667 75.7782 110.667 75.7782C110.667 75.7782 113.159 75.7273 114.034 76.8559Z" fill="#C4764B"/>
<path d="M96.9531 79.3971L104.438 85.8065L110.371 76.1201C110.371 76.1201 112.117 76.6127 113.513 77.9155C113.513 77.9155 108.614 88.5254 105.388 91.3476L98.035 89.941L96.9531 79.3971Z" fill="#FDD449"/>
<path d="M99.8484 107.598C99.8484 107.598 94.7761 109.662 87.2053 109.135C85.3064 109.005 83.249 108.71 81.0742 108.178L81.1884 86.6552L81.2232 80.0676L86.7107 76.9575L91.9639 77.1254L96.9539 79.3985L99.2398 101.669L99.8484 107.598Z" fill="#FDD449"/>
<path d="M94.0977 102.046L86.6253 102.544L87.2053 109.135C85.3065 109.005 83.249 108.71 81.0742 108.178L81.1884 86.655L84.013 84.978L85.8328 98.1343L98.9608 99.3803L99.2398 101.669L94.0977 102.046Z" fill="#E59A38"/>
<path d="M95.1747 64.8857C95.1747 64.8857 97.3663 74.8927 91.7426 75.3887L92.0319 77.6629C92.0319 77.6629 90.3779 79.3582 86.6978 77.6629L86.7804 72.7007C86.7804 72.7007 86.2427 72.5353 85.788 71.7083C85.3332 70.8813 84.5475 69.2274 85.788 68.8964C87.0284 68.5655 87.4006 69.9302 87.4006 69.9302L87.9383 69.8476C87.9383 69.8476 87.6074 67.4492 88.1863 67.2838C88.7653 67.1183 89.5716 67.9246 91.0395 67.1389C92.5073 66.3532 92.2799 65.3195 93.3343 65.1953C94.389 65.0718 95.1747 64.8857 95.1747 64.8857Z" fill="#F6B68E"/>
<path d="M95.3633 93.8491L100.201 93.9733L99.5074 100.689L96.0571 100.606L95.3633 93.8491Z" fill="#FC694C"/>
<path d="M98.9608 99.3803C98.8878 99.5103 98.5707 99.8464 97.0839 100.404C96.1486 100.756 94.9979 100.753 94.2721 100.706C93.8407 100.677 93.5586 100.63 93.5586 100.63L93.6253 97.6593C93.6253 97.6593 94.9662 95.8777 95.5466 95.6304L95.6735 96.8794C95.6735 96.8794 96.6436 96.9555 97.1603 96.8698C97.677 96.7841 99.2652 96.1598 99.4111 96.3246C99.5535 96.489 99.7977 97.8777 98.9608 99.3803Z" fill="#F6B68E"/>
<path d="M94.2721 100.706C93.8407 100.677 93.5586 100.63 93.5586 100.63L93.6253 97.6592C93.6253 97.6592 94.3384 99.203 94.2721 100.706Z" fill="#C4764B"/>
<path d="M97.7823 94.415C99.1183 94.415 100.201 94.1616 100.201 93.8491C100.201 93.5366 99.1183 93.2832 97.7823 93.2832C96.4463 93.2832 95.3633 93.5366 95.3633 93.8491C95.3633 94.1616 96.4463 94.415 97.7823 94.415Z" fill="#222850"/>
<path d="M92.5234 115.606L95.3618 114.111L93.0277 119.587L92.5234 115.606Z" fill="#222850"/>
<path d="M98.0346 89.9411L97.6328 86.0356L100.198 90.3549L98.0346 89.9411Z" fill="#E59A38"/>
<path d="M91.7421 75.3887C91.7421 75.3887 89.6093 75.4689 87.9141 73.1118C87.9141 73.1118 88.3816 76.6884 91.9416 76.9574L91.7421 75.3887Z" fill="#C4764B"/>
<path d="M81.224 80.0684C81.224 80.0684 79.6282 81.3821 78.7599 84.9796C77.8917 88.5772 77.784 97.116 77.8666 98.3568C77.9491 99.5972 86.017 101.044 93.3775 100.838C93.3775 100.838 94.2155 100.368 93.5953 97.5154L82.8126 95.0279C82.8126 95.0279 84.2185 87.0058 84.0118 84.9796C83.8043 82.9535 82.5718 80.7392 81.224 80.0684Z" fill="#FDD449"/>
<path d="M231.985 98.7148C231.985 107.333 225.001 114.321 216.383 114.321C207.765 114.321 200.777 107.333 200.777 98.7148C200.777 90.0973 207.765 83.1089 216.383 83.1089C225.001 83.1089 231.985 90.0969 231.985 98.7148Z" fill="white"/>
<path d="M229.769 98.7149C229.769 106.108 223.777 112.103 216.384 112.103C208.991 112.103 202.996 106.108 202.996 98.7149C202.996 91.322 208.991 85.3271 216.384 85.3271C223.777 85.3268 229.769 91.322 229.769 98.7149Z" fill="#FDD449"/>
<path d="M229.768 98.7149H216.383V85.3271C223.776 85.3268 229.768 91.322 229.768 98.7149Z" fill="#FC694C"/>
<path d="M59.5298 115.653C59.5298 115.653 60.0527 112.206 58.3158 109.684C56.579 107.161 52.6921 106.004 49.8803 105.342C47.0684 104.68 41.7756 108.154 39.3773 107.327C36.9789 106.5 38.7983 109.807 40.7832 111.131C42.7681 112.454 43.099 114.515 46.5724 114.849C50.0457 115.183 49.9632 116.837 52.9405 117.085C55.9175 117.333 58.428 116.536 59.5298 115.653Z" fill="#19888E"/>
<path d="M59.6044 127.187C59.6044 127.187 58.3168 122.379 53.1066 120.559C47.8964 118.74 45.3325 122.131 42.6861 122.627C40.0398 123.123 37.7239 122.52 37.8068 123.607C37.8894 124.695 40.8667 125.879 42.8516 126.734C44.8365 127.589 44.0921 127.754 46.6559 128.416C49.2197 129.077 52.2796 128.829 52.8586 128.995C53.4375 129.16 58.5765 128.935 59.6044 127.187Z" fill="#19888E"/>
<path d="M66.5708 121.108C66.5708 121.108 64.7696 118.237 65.4311 114.849C66.0927 111.462 72.0535 107.161 74.9451 106.83C77.8365 106.499 75.0246 109.521 74.1151 111.194C73.2052 112.867 73.0401 114.935 72.2131 116.341C71.3861 117.747 70.9933 117.995 70.6933 118.987C70.393 119.98 67.3796 120.831 66.5708 121.108Z" fill="#19888E"/>
<path d="M66.5423 131.238C66.5423 131.238 64.8794 125.604 67.8223 123.04C70.7652 120.476 76.1942 119.15 76.4715 119.526C76.7488 119.901 75.81 122.834 75.1897 123.785C74.5695 124.736 73.3693 126.472 72.7081 127.093C72.047 127.713 71.8402 129.45 70.8065 129.904C69.7728 130.359 68.0669 131.538 66.5423 131.238Z" fill="#19888E"/>
<path d="M63.904 143.434C63.979 142.928 64.0268 142.345 64.0588 141.792C64.0863 141.231 64.1015 140.667 64.0946 140.103C64.0853 138.975 64 137.847 63.8352 136.73C63.5105 134.5 62.838 132.308 61.6986 130.365C60.5796 128.409 58.9057 126.782 56.9071 125.672C54.8974 124.574 52.606 123.998 50.293 123.784C52.6136 123.841 54.9662 124.256 57.1224 125.248C59.2655 126.25 61.1668 127.851 62.5012 129.854C63.8579 131.843 64.7331 134.133 65.2384 136.472C65.4936 137.644 65.6656 138.832 65.7571 140.028C65.8053 140.625 65.8304 141.225 65.8418 141.827C65.8466 142.436 65.8425 143.016 65.7919 143.666L63.904 143.434Z" fill="#0A5B5B"/>
<path d="M64.0096 141.715C64.1868 140.179 64.2676 138.56 64.2931 136.973C64.3168 135.378 64.2766 133.78 64.1651 132.188C64.0537 130.595 63.8717 129.007 63.6085 127.432C63.3378 125.859 62.9773 124.302 62.5156 122.775C62.0598 121.247 61.4774 119.755 60.7568 118.334L60.4898 117.798C60.3956 117.623 60.2913 117.453 60.1926 117.28C59.9855 116.94 59.808 116.579 59.5765 116.254L58.9057 115.263L58.1627 114.324C57.1344 113.102 55.9494 112.01 54.6301 111.09C53.2896 110.2 51.8238 109.509 50.293 108.981C51.8465 109.433 53.3559 110.055 54.7591 110.89C56.1406 111.756 57.4055 112.81 58.5204 114.011L59.3299 114.937L60.0684 115.92C60.323 116.243 60.5228 116.602 60.753 116.942C60.8631 117.115 60.979 117.285 61.0846 117.461L61.3856 117.997C62.1985 119.423 62.8731 120.928 63.4179 122.475C63.9694 124.021 64.418 125.602 64.775 127.203C65.1242 128.806 65.3908 130.425 65.5851 132.053C65.7792 133.681 65.9009 135.317 65.957 136.957C66.0096 138.605 66.0124 140.224 65.9013 141.911L64.0096 141.715Z" fill="#0A5B5B"/>
<path d="M64.1821 144.356C64.1697 143.388 64.2062 142.477 64.2612 141.545C64.3173 140.618 64.3999 139.695 64.5096 138.774C64.7308 136.935 65.05 135.106 65.5216 133.315C65.7528 132.419 66.027 131.533 66.3469 130.665C66.663 129.795 67.0256 128.942 67.4546 128.123C68.2926 126.479 69.404 124.96 70.8041 123.784C69.5114 125.079 68.5623 126.655 67.886 128.323C67.5389 129.154 67.2592 130.012 67.0263 130.881C66.79 131.749 66.5991 132.629 66.4511 133.517C66.146 135.289 65.9912 137.086 65.9324 138.882C65.9038 139.78 65.9021 140.679 65.9255 141.575C65.9496 142.465 65.9946 143.379 66.0806 144.233L64.1821 144.356Z" fill="#0A5B5B"/>
<path d="M64.0567 141.238C64.0385 138.642 64.1451 136.097 64.3305 133.537C64.519 130.982 64.8056 128.434 65.227 125.907C65.6505 123.382 66.2115 120.873 67.0292 118.443C67.4465 117.232 67.9284 116.042 68.518 114.906C69.1083 113.773 69.8087 112.687 70.6887 111.765C69.8686 112.74 69.2449 113.856 68.732 115.009C68.2208 116.165 67.8197 117.366 67.484 118.582C66.829 121.022 66.431 123.524 66.1695 126.035C65.9102 128.547 65.7846 131.073 65.7561 133.598C65.7299 136.118 65.7839 138.662 65.9566 141.147L64.0567 141.238Z" fill="#0A5B5B"/>
<path d="M72.7047 140.738V152.547C72.7047 152.547 71.8881 157.118 64.8485 157.118C57.8113 157.118 56.9922 152.547 56.9922 152.547V140.738H72.7047Z" fill="#FC694C"/>
<path d="M118.541 109.229L117.274 109.149C117.115 108.139 116.719 107.211 116.143 106.42L116.982 105.468C117.117 105.314 117.111 105.083 116.966 104.939L116.229 104.199C116.084 104.055 115.851 104.048 115.7 104.183L114.746 105.025C113.955 104.449 113.026 104.05 112.016 103.891L111.937 102.625C111.925 102.422 111.758 102.263 111.552 102.263H110.51C110.304 102.263 110.136 102.422 110.122 102.625L110.043 103.891C109.035 104.05 108.104 104.449 107.313 105.025L106.362 104.183C106.208 104.048 105.977 104.055 105.832 104.199L105.095 104.939C104.951 105.083 104.943 105.314 105.079 105.468L105.918 106.42C105.342 107.211 104.943 108.139 104.787 109.149L103.52 109.229C103.315 109.241 103.156 109.411 103.156 109.614V110.659C103.156 110.862 103.315 111.032 103.52 111.044L104.787 111.123C104.943 112.133 105.342 113.061 105.918 113.852L105.079 114.806C104.943 114.958 104.95 115.189 105.095 115.333L105.832 116.073C105.977 116.218 106.208 116.225 106.362 116.089L107.313 115.25C108.104 115.823 109.035 116.222 110.043 116.381L110.122 117.648C110.136 117.851 110.304 118.009 110.51 118.009H111.552C111.758 118.009 111.925 117.851 111.937 117.648L112.016 116.381C113.026 116.222 113.955 115.824 114.746 115.25L115.7 116.089C115.851 116.224 116.084 116.218 116.229 116.073L116.966 115.333C117.111 115.189 117.118 114.958 116.982 114.806L116.143 113.852C116.719 113.061 117.115 112.133 117.274 111.123L118.541 111.044C118.744 111.032 118.902 110.862 118.902 110.659V109.614C118.902 109.411 118.744 109.241 118.541 109.229ZM111.03 112.396C109.782 112.396 108.772 111.384 108.772 110.136C108.772 108.888 109.782 107.878 111.03 107.878C112.278 107.878 113.29 108.888 113.29 110.136C113.29 111.384 112.277 112.396 111.03 112.396Z" fill="#CED8D6"/>
<path d="M126.052 116.862L125.278 116.814C125.181 116.197 124.939 115.63 124.587 115.147L125.1 114.566C125.183 114.472 125.179 114.331 125.09 114.242L124.64 113.791C124.551 113.702 124.409 113.698 124.316 113.781L123.734 114.295C123.251 113.943 122.684 113.699 122.067 113.602L122.019 112.829C122.011 112.705 121.909 112.608 121.784 112.608H121.147C121.022 112.608 120.919 112.705 120.91 112.829L120.862 113.602C120.247 113.699 119.678 113.943 119.195 114.295L118.614 113.781C118.52 113.698 118.379 113.702 118.291 113.791L117.84 114.242C117.752 114.331 117.748 114.472 117.83 114.566L118.343 115.147C117.991 115.63 117.748 116.197 117.652 116.814L116.878 116.862C116.753 116.869 116.656 116.973 116.656 117.097V117.735C116.656 117.859 116.753 117.963 116.878 117.97L117.652 118.019C117.747 118.635 117.991 119.202 118.343 119.685L117.83 120.268C117.748 120.361 117.752 120.502 117.84 120.59L118.291 121.042C118.379 121.13 118.52 121.134 118.614 121.052L119.195 120.539C119.678 120.889 120.247 121.133 120.862 121.23L120.91 122.003C120.919 122.127 121.022 122.224 121.147 122.224H121.784C121.909 122.224 122.012 122.127 122.019 122.003L122.067 121.23C122.684 121.133 123.251 120.889 123.734 120.539L124.316 121.052C124.409 121.134 124.551 121.13 124.64 121.042L125.09 120.59C125.179 120.502 125.183 120.361 125.1 120.268L124.587 119.685C124.939 119.202 125.181 118.635 125.278 118.019L126.052 117.97C126.176 117.963 126.273 117.859 126.273 117.735V117.097C126.272 116.973 126.176 116.869 126.052 116.862ZM121.464 118.797C120.702 118.797 120.085 118.179 120.085 117.416C120.085 116.654 120.702 116.037 121.464 116.037C122.227 116.037 122.845 116.654 122.845 117.416C122.845 118.179 122.227 118.797 121.464 118.797Z" fill="#CED8D6"/>
<path d="M149.38 57.2706L150.45 57.3377C150.584 58.1911 150.919 58.9761 151.407 59.6442L150.697 60.4485C150.583 60.5785 150.589 60.7739 150.711 60.896L151.334 61.521C151.456 61.6432 151.653 61.649 151.781 61.5348L152.587 60.8231C153.256 61.3098 154.041 61.6469 154.894 61.7811L154.961 62.8516C154.971 63.0233 155.113 63.1571 155.287 63.1571H156.168C156.342 63.1571 156.484 63.0229 156.495 62.8516L156.562 61.7811C157.414 61.6469 158.201 61.3098 158.869 60.8231L159.673 61.5348C159.803 61.649 159.999 61.6432 160.121 61.521L160.744 60.896C160.866 60.7739 160.872 60.5785 160.757 60.4485L160.048 59.6442C160.535 58.9758 160.872 58.1911 161.004 57.3377L162.075 57.2706C162.248 57.2606 162.382 57.1168 162.382 56.9452V56.0618C162.382 55.8901 162.248 55.7463 162.075 55.7363L161.004 55.6693C160.872 54.8154 160.535 54.0308 160.048 53.3624L160.757 52.5561C160.872 52.4277 160.866 52.2327 160.744 52.1106L160.121 51.4855C159.999 51.3634 159.803 51.3576 159.673 51.4718L158.869 52.1814C158.201 51.6964 157.414 51.3593 156.562 51.2251L156.495 50.1546C156.484 49.9833 156.342 49.8491 156.168 49.8491H155.287C155.113 49.8491 154.971 49.9833 154.961 50.1546L154.894 51.2251C154.041 51.3593 153.256 51.6964 152.587 52.1814L151.781 51.4718C151.653 51.3576 151.456 51.3634 151.334 51.4855L150.711 52.1106C150.589 52.2327 150.583 52.4281 150.697 52.5561L151.407 53.3624C150.919 54.0308 150.584 54.8154 150.45 55.6693L149.38 55.7363C149.208 55.7463 149.074 55.8901 149.074 56.0618V56.9452C149.074 57.1168 149.208 57.2609 149.38 57.2706ZM155.728 54.5932C156.783 54.5932 157.636 55.4488 157.636 56.5038C157.636 57.5585 156.783 58.4123 155.728 58.4123C154.673 58.4123 153.818 57.5585 153.818 56.5038C153.818 55.4491 154.673 54.5932 155.728 54.5932Z" fill="#CED8D6"/>
<path d="M143.031 50.8188L143.684 50.8598C143.766 51.3809 143.971 51.8605 144.269 52.2684L143.835 52.7597C143.765 52.8391 143.769 52.9585 143.844 53.0331L144.224 53.415C144.299 53.4896 144.419 53.4934 144.497 53.4236L144.99 52.9888C145.398 53.286 145.877 53.492 146.399 53.5739L146.44 54.2279C146.445 54.3324 146.532 54.4143 146.638 54.4143H147.176C147.282 54.4143 147.369 54.3324 147.376 54.2279L147.417 53.5739C147.937 53.492 148.418 53.286 148.826 52.9888L149.317 53.4236C149.397 53.4934 149.516 53.49 149.591 53.415L149.971 53.0331C150.046 52.9585 150.049 52.8395 149.979 52.7597L149.546 52.2684C149.843 51.8601 150.049 51.3809 150.13 50.8598L150.784 50.8188C150.89 50.813 150.972 50.7249 150.972 50.62V50.0806C150.972 49.976 150.89 49.888 150.784 49.8821L150.13 49.8412C150.049 49.3197 149.843 48.8405 149.546 48.4325L149.979 47.9402C150.049 47.8618 150.046 47.7428 149.971 47.6681L149.591 47.2863C149.516 47.2116 149.397 47.2079 149.317 47.278L148.826 47.7115C148.418 47.4153 147.937 47.2092 147.417 47.1274L147.376 46.4734C147.369 46.3685 147.282 46.2866 147.176 46.2866H146.638C146.532 46.2866 146.445 46.3685 146.44 46.4734L146.399 47.1274C145.877 47.2092 145.398 47.4153 144.99 47.7115L144.497 47.278C144.419 47.2082 144.299 47.212 144.224 47.2863L143.844 47.6681C143.769 47.7428 143.765 47.8618 143.835 47.9402L144.269 48.4325C143.971 48.8408 143.766 49.32 143.684 49.8412L143.031 49.8821C142.926 49.8883 142.844 49.976 142.844 50.0806V50.62C142.844 50.7249 142.926 50.813 143.031 50.8188ZM146.908 49.1838C147.552 49.1838 148.073 49.7063 148.073 50.3506C148.073 50.9949 147.552 51.5161 146.908 51.5161C146.263 51.5161 145.741 50.9946 145.741 50.3506C145.741 49.7063 146.263 49.1838 146.908 49.1838Z" fill="#CED8D6"/>
<path d="M207.217 125.115L206.197 125.051C206.069 124.238 205.749 123.49 205.285 122.853L205.962 122.086C206.071 121.962 206.065 121.776 205.948 121.659L205.355 121.064C205.238 120.947 205.05 120.941 204.928 121.051L204.16 121.729C203.523 121.265 202.775 120.944 201.961 120.816L201.897 119.795C201.888 119.632 201.752 119.504 201.587 119.504H200.747C200.582 119.504 200.447 119.632 200.435 119.795L200.371 120.816C199.559 120.944 198.81 121.265 198.173 121.729L197.406 121.051C197.282 120.941 197.096 120.947 196.979 121.064L196.386 121.659C196.269 121.776 196.264 121.962 196.373 122.086L197.049 122.853C196.585 123.49 196.264 124.238 196.138 125.051L195.117 125.115C194.952 125.125 194.824 125.262 194.824 125.425V126.267C194.824 126.43 194.952 126.568 195.117 126.577L196.138 126.641C196.264 127.454 196.585 128.202 197.049 128.839L196.373 129.608C196.264 129.73 196.269 129.916 196.386 130.032L196.979 130.628C197.096 130.745 197.282 130.75 197.406 130.641L198.173 129.965C198.81 130.427 199.559 130.749 200.371 130.876L200.435 131.897C200.447 132.06 200.582 132.188 200.747 132.188H201.587C201.753 132.188 201.888 132.06 201.897 131.897L201.961 130.876C202.775 130.749 203.523 130.427 204.16 129.965L204.928 130.641C205.05 130.75 205.238 130.745 205.355 130.628L205.948 130.032C206.065 129.916 206.071 129.73 205.962 129.608L205.285 128.839C205.749 128.202 206.069 127.454 206.197 126.641L207.217 126.577C207.38 126.568 207.508 126.43 207.508 126.267V125.425C207.508 125.262 207.381 125.125 207.217 125.115ZM201.166 127.667C200.161 127.667 199.347 126.851 199.347 125.846C199.347 124.841 200.161 124.027 201.166 124.027C202.171 124.027 202.987 124.841 202.987 125.846C202.987 126.852 202.172 127.667 201.166 127.667Z" fill="#CED8D6"/>
<path d="M108.848 42.7002V58.0003H130.507L134.249 62.3192V58.0003H136.847V42.7002H108.848Z" fill="#19888E"/>
<path d="M134.691 47.2276H111.006C110.789 47.2276 110.613 47.0518 110.613 46.8347C110.613 46.6177 110.789 46.4419 111.006 46.4419H134.691C134.908 46.4419 135.084 46.6177 135.084 46.8347C135.084 47.0518 134.908 47.2276 134.691 47.2276Z" fill="white"/>
<path d="M134.691 50.7427H111.006C110.789 50.7427 110.613 50.5669 110.613 50.3499C110.613 50.1328 110.789 49.957 111.006 49.957H134.691C134.908 49.957 135.084 50.1328 135.084 50.3499C135.084 50.5666 134.908 50.7427 134.691 50.7427Z" fill="white"/>
<path d="M134.691 54.2574H111.006C110.789 54.2574 110.613 54.0816 110.613 53.8645C110.613 53.6475 110.789 53.4717 111.006 53.4717H134.691C134.908 53.4717 135.084 53.6475 135.084 53.8645C135.084 54.0816 134.908 54.2574 134.691 54.2574Z" fill="white"/>
<path d="M194.51 36.9302H162.684V50.9069H194.51V36.9302Z" fill="#19888E"/>
<path d="M166.918 50.9067L171.221 57.2336V50.9067H166.918Z" fill="#19888E"/>
<path d="M191.758 40.7964H165.436C165.219 40.7964 165.043 40.6207 165.043 40.4036C165.043 40.1865 165.219 40.0107 165.436 40.0107H191.758C191.975 40.0107 192.151 40.1865 192.151 40.4036C192.151 40.6207 191.975 40.7964 191.758 40.7964Z" fill="white"/>
<path d="M191.758 44.3116H165.436C165.219 44.3116 165.043 44.1358 165.043 43.9187C165.043 43.7017 165.219 43.5259 165.436 43.5259H191.758C191.975 43.5259 192.151 43.7017 192.151 43.9187C192.151 44.1354 191.975 44.3116 191.758 44.3116Z" fill="white"/>
<path d="M191.758 47.8262H165.436C165.219 47.8262 165.043 47.6504 165.043 47.4334C165.043 47.2163 165.219 47.0405 165.436 47.0405H191.758C191.975 47.0405 192.151 47.2163 192.151 47.4334C192.151 47.6504 191.975 47.8262 191.758 47.8262Z" fill="white"/>
<path d="M83.2404 55.3816C84.3378 53.9523 84.9976 52.169 84.9976 50.2278C84.9976 45.5449 81.2012 41.7485 76.5183 41.7485C71.8354 41.7485 68.0391 45.5449 68.0391 50.2278C68.0391 54.9107 71.8354 58.707 76.5183 58.707C77.8145 58.707 79.0378 58.4078 80.1362 57.8876L84.3918 59.7366L83.2404 55.3816Z" fill="#FC694C"/>
<path d="M80.2879 47.4488C80.2879 48.165 80.1087 48.8018 79.8428 49.347C79.3695 50.316 78.6223 50.9978 78.1177 51.3284C77.3306 51.8448 77.6147 52.9036 77.6147 52.9036H75.419C75.419 52.9036 75.7035 51.8448 74.9157 51.3284C74.4296 51.0095 73.7172 50.3642 73.2432 49.4495C72.9491 48.8819 72.7461 48.2104 72.7461 47.4488C72.7461 45.4605 74.1283 43.8389 76.517 43.8389C78.9058 43.8389 80.2879 45.4601 80.2879 47.4488Z" fill="#FDD449"/>
<path d="M78.0731 53.9176H74.9613C74.8337 53.9176 74.7305 53.8144 74.7305 53.6868V53.1346C74.7305 53.007 74.8337 52.9038 74.9613 52.9038H78.0731C78.2007 52.9038 78.3039 53.0073 78.3039 53.1346V53.6868C78.3039 53.814 78.2004 53.9176 78.0731 53.9176Z" fill="#444C72"/>
<path d="M77.9661 53.9175V55.7816C77.9661 56.052 77.7473 56.2708 77.4769 56.2708H75.5595C75.2891 56.2708 75.0703 56.052 75.0703 55.7816V53.9175H77.9661Z" fill="#444C72"/>
<path d="M76.8911 56.8612H76.1453C75.8192 56.8612 75.5547 56.5966 75.5547 56.2705H77.4821C77.4821 56.5966 77.2176 56.8612 76.8911 56.8612Z" fill="#444C72"/>
<path d="M77.2459 49.5269C76.9431 49.5269 76.6972 49.7732 76.6972 50.0755V50.5468H76.66H76.3728H76.3356V50.0755C76.3356 49.7728 76.0893 49.5269 75.787 49.5269C75.4842 49.5269 75.2383 49.7732 75.2383 50.0755V50.295C75.2383 50.5977 75.4846 50.8437 75.787 50.8437H76.0388V52.9032H76.3356V50.8437H76.3728H76.66H76.6972V52.9032H76.9941V50.8437H77.2459C77.5486 50.8437 77.7945 50.5974 77.7945 50.295V50.0755C77.7949 49.7732 77.5486 49.5269 77.2459 49.5269ZM76.0388 50.5468H75.787C75.648 50.5468 75.5352 50.434 75.5352 50.295V50.0755C75.5352 49.9366 75.648 49.8237 75.787 49.8237C75.9259 49.8237 76.0388 49.9366 76.0388 50.0755V50.5468ZM77.4977 50.295C77.4977 50.434 77.3848 50.5468 77.2459 50.5468H76.9941V50.0755C76.9941 49.9366 77.1069 49.8237 77.2459 49.8237C77.3848 49.8237 77.4977 49.9366 77.4977 50.0755V50.295Z" fill="white"/>
<path d="M96.1933 45.4716L96.1489 44.8943C96.0154 43.6952 96.4155 42.3852 97.5256 41.0529C98.5249 39.8764 99.0801 39.0102 99.0801 38.0109C99.0801 36.8785 98.3698 36.1237 96.9707 36.1014C96.1712 36.1014 95.283 36.368 94.7282 36.7897L94.1953 35.3906C94.928 34.8578 96.1936 34.5024 97.3704 34.5024C99.9239 34.5024 101.079 36.079 101.079 37.7667C101.079 39.2765 100.235 40.3642 99.1692 41.6298C98.1923 42.7846 97.8369 43.7615 97.9033 44.894L97.9256 45.4712L96.1933 45.4716ZM95.7048 48.5806C95.7048 47.7588 96.26 47.1816 97.0371 47.1816C97.8142 47.1816 98.3474 47.7588 98.3474 48.5806C98.3474 49.3577 97.8366 49.957 97.0147 49.957C96.2376 49.957 95.7048 49.3574 95.7048 48.5806Z" fill="white"/>
<path d="M218.343 137.52L218.291 136.854C218.137 135.469 218.599 133.957 219.881 132.419C221.035 131.06 221.675 130.061 221.675 128.907C221.675 127.599 220.855 126.728 219.24 126.702C218.317 126.702 217.291 127.01 216.651 127.496L216.035 125.881C216.881 125.266 218.342 124.856 219.701 124.856C222.649 124.856 223.982 126.676 223.982 128.625C223.982 130.368 223.008 131.624 221.778 133.085C220.65 134.418 220.24 135.546 220.316 136.854L220.342 137.52H218.343ZM217.779 141.11C217.779 140.161 218.42 139.495 219.317 139.495C220.214 139.495 220.829 140.161 220.829 141.11C220.829 142.007 220.24 142.699 219.291 142.699C218.394 142.699 217.779 142.007 217.779 141.11Z" fill="white"/>
<path d="M31.8047 97.2702L39.491 93.7246L39.0039 104.545L31.8047 97.2702Z" fill="#CED8D6"/>
<path d="M39.7344 149.578L47.4207 146.032L46.9336 156.852L39.7344 149.578Z" fill="#CED8D6"/>
<path d="M29.6211 90.9638L43.5779 86.5558L34.6359 76.3813L29.6211 90.9638Z" fill="#CED8D6"/>
<path d="M216.038 161.04L213.805 149.208L224.804 152.487L216.038 161.04Z" fill="#CED8D6"/>
<path d="M205.651 145.842L208.896 154.207H199.344L205.651 145.842Z" fill="#CED8D6"/>
<path d="M239.678 110.239L242.923 118.604H233.371L239.678 110.239Z" fill="#CED8D6"/>
<path d="M120.913 24.8911L124.158 33.2558H114.605L120.913 24.8911Z" fill="#CED8D6"/>
</g>
<defs>
<clipPath id="clip0_9552_5962">
<rect width="258" height="172" fill="white" transform="translate(3.17969 7)"/>
</clipPath>
</defs>
</svg>
